<?xml version="1.0" standalone="no"?>
<!DOCTYPE svg PUBLIC "-//W3C//DTD SVG 20010904//EN"
 "http://www.w3.org/TR/2001/REC-SVG-20010904/DTD/svg10.dtd">
<svg version="1.0" xmlns="http://www.w3.org/2000/svg"
 width="500.000000pt" height="500.000000pt" viewBox="0 0 500.000000 500.000000"
 preserveAspectRatio="xMidYMid meet">

<g transform="translate(0.000000,500.000000) scale(0.100000,-0.100000)"
fill="#000000" stroke="none">
<path d="M2596 4063 c-3 -10 -10 -56 -15 -103 -5 -47 -13 -109 -17 -137 -5
-45 -4 -53 9 -53 9 0 19 4 22 10 4 6 15 2 27 -10 15 -14 35 -20 67 -20 68 1
111 43 111 110 0 66 -43 109 -107 110 -23 0 -45 -4 -48 -10 -17 -27 -27 -6
-23 52 2 40 -1 62 -9 65 -6 2 -14 -4 -17 -14z m129 -129 c23 -9 47 -61 39 -87
-19 -63 -92 -89 -134 -47 -24 24 -27 86 -4 118 15 22 62 30 99 16z"/>
<path d="M2177 4033 c-4 -3 -7 -62 -7 -131 0 -145 5 -144 -96 -15 -91 116 -98
113 -104 -51 l-5 -128 -75 96 c-44 58 -81 96 -92 96 -10 0 -18 -3 -18 -7 0
-16 182 -243 195 -243 34 1 38 16 30 139 -4 67 -3 121 2 121 4 -1 41 -44 82
-96 102 -132 105 -130 109 69 2 143 -2 170 -21 150z"/>
<path d="M2337 3960 c-46 -36 -55 -121 -18 -164 28 -33 77 -48 120 -36 38 10
69 35 58 46 -3 4 -23 0 -44 -8 -48 -18 -74 -13 -104 18 -32 34 -15 44 84 44
l77 0 0 29 c0 20 -10 40 -31 60 -38 38 -101 43 -142 11z m115 -27 c38 -34 13
-48 -97 -57 -27 -2 -30 29 -6 53 25 25 77 27 103 4z"/>
<path d="M2982 3829 c-35 -73 -61 -133 -60 -134 2 -1 34 -16 71 -33 81 -38
145 -42 194 -12 77 47 91 161 26 222 -26 24 -142 88 -161 88 -5 0 -36 -59 -70
-131z m159 55 c47 -26 79 -70 79 -109 0 -57 -59 -115 -117 -115 -27 0 -133 43
-133 54 0 20 97 196 108 196 8 0 36 -12 63 -26z"/>
<path d="M3305 3690 c-64 -26 -92 -110 -55 -168 29 -47 120 -83 120 -48 0 8
-13 17 -30 21 -32 7 -80 57 -80 83 1 45 17 44 76 -4 32 -26 65 -52 73 -58 40
-32 59 104 19 141 -46 41 -81 51 -123 33z m98 -47 c16 -15 24 -73 11 -86 -9
-9 -114 73 -114 88 0 28 70 27 103 -2z"/>
<path d="M1459 3536 c-9 -25 -17 -32 -31 -28 -38 10 -16 -28 58 -97 63 -59 79
-69 91 -60 12 11 5 21 -41 64 -45 41 -56 57 -56 83 0 17 5 34 10 37 15 9 12
35 -4 35 -8 0 -20 -15 -27 -34z"/>
<path d="M1726 3545 c-3 -9 0 -18 9 -21 21 -8 47 3 43 19 -7 18 -45 20 -52 2z"/>
<path d="M3492 3524 c-29 -20 -28 -46 5 -103 26 -48 26 -81 0 -81 -20 0 -66
49 -73 77 -4 14 -14 23 -25 23 -24 0 -24 -6 4 -54 42 -75 123 -97 149 -41 9
20 6 31 -16 69 -33 57 -34 86 -3 86 24 0 59 -31 71 -63 6 -19 27 -19 33 0 6
17 -81 103 -103 103 -11 0 -30 -7 -42 -16z"/>
<path d="M3746 3421 c-10 -16 5 -42 23 -39 21 4 21 42 -1 46 -9 2 -19 -1 -22
-7z"/>
<path d="M1314 3372 c-30 -24 -44 -55 -44 -98 0 -53 55 -104 112 -104 34 0 47
7 79 39 29 28 39 47 39 70 0 21 -5 31 -15 31 -9 0 -15 -10 -15 -26 0 -33 -50
-84 -83 -84 -47 0 -43 15 26 109 38 51 39 55 22 68 -26 19 -96 16 -121 -5z
m96 -18 c0 -3 -18 -32 -41 -65 -33 -49 -43 -58 -55 -48 -21 17 -17 69 8 96 14
15 33 23 55 23 18 0 33 -2 33 -6z"/>
<path d="M3604 3314 c-43 -31 -81 -58 -83 -60 -2 -2 -1 -10 3 -19 5 -14 9 -14
33 2 68 43 148 106 148 116 0 24 -26 14 -101 -39z"/>
<path d="M3665 3238 c-36 -19 -55 -52 -55 -95 0 -35 6 -48 36 -79 41 -40 34
-56 -20 -52 -37 4 -66 42 -73 96 -7 51 -33 59 -33 10 0 -65 62 -148 112 -148
7 0 62 23 121 52 77 37 107 56 104 67 -1 9 -10 15 -18 13 -12 -2 -15 4 -12 22
6 27 -17 76 -49 106 -24 22 -80 26 -113 8z m106 -47 c54 -55 24 -131 -52 -131
-75 0 -106 86 -48 134 40 34 64 33 100 -3z"/>
<path d="M1199 3153 c-40 -24 -62 -69 -56 -109 5 -29 3 -34 -11 -32 -10 2 -17
-3 -17 -12 0 -15 233 -120 267 -120 36 0 17 26 -33 45 -47 19 -49 21 -32 35
74 60 69 151 -9 191 -45 23 -75 24 -109 2z m108 -45 c30 -35 35 -57 17 -93
-24 -51 -75 -59 -123 -19 -37 31 -41 69 -10 108 27 35 86 37 116 4z"/>
<path d="M3780 2956 c-60 -16 -86 -27 -88 -39 -4 -21 -3 -21 78 -1 76 18 109
9 128 -36 10 -22 11 -34 2 -50 -12 -22 -65 -50 -97 -50 -34 -1 -73 -24 -64
-38 6 -11 19 -10 70 3 85 22 107 33 120 62 17 36 14 56 -14 98 -19 26 -23 41
-15 49 12 15 3 26 -19 25 -9 -1 -54 -11 -101 -23z"/>
<path d="M1107 2879 c-47 -27 -62 -127 -26 -172 28 -37 88 -54 129 -37 48 20
70 55 70 112 0 41 -5 54 -29 79 -25 24 -37 29 -78 29 -26 0 -56 -5 -66 -11z
m126 -50 c42 -51 5 -129 -62 -129 -76 0 -113 94 -54 140 34 27 89 22 116 -11z"/>
<path d="M3808 2684 c-34 -18 -58 -62 -58 -104 0 -32 25 -90 39 -90 17 0 19
14 6 41 -21 39 -19 72 6 103 36 46 46 34 54 -64 6 -78 10 -90 26 -90 34 0 68
23 84 55 19 41 19 56 1 100 -25 58 -99 81 -158 49z m114 -41 c36 -41 30 -101
-12 -123 -12 -6 -23 -10 -25 -8 -1 2 -6 36 -10 76 -7 67 -6 72 12 72 11 0 27
-8 35 -17z"/>
<path d="M940 2601 c0 -17 12 -19 155 -26 86 -4 158 -5 161 -2 3 3 3 10 0 16
-6 10 -63 16 -223 25 -86 5 -93 4 -93 -13z"/>
<path d="M1077 2489 c-67 -52 -51 -161 27 -187 46 -15 103 -3 132 29 25 28 27
130 2 155 -24 25 -39 9 -22 -24 20 -39 17 -77 -9 -108 -28 -33 -47 -25 -47 19
0 18 -3 56 -6 85 -6 45 -10 52 -29 52 -12 0 -34 -9 -48 -21z m58 -85 c4 -36 4
-68 1 -71 -11 -12 -56 17 -68 42 -15 33 12 95 41 95 16 0 20 -10 26 -66z"/>
<path d="M3752 2413 c3 -15 16 -19 70 -24 72 -6 108 -26 108 -61 0 -19 26 -36
37 -24 4 3 -1 22 -10 41 -14 30 -15 35 -2 35 8 0 15 7 15 15 0 16 -24 21 -143
31 -73 5 -79 5 -75 -13z"/>
<path d="M1050 2230 c0 -16 44 -29 121 -36 38 -4 72 -11 75 -15 2 -4 -27 -33
-65 -63 -78 -63 -82 -67 -73 -83 8 -12 190 124 191 143 2 23 -29 34 -130 49
-125 18 -119 17 -119 5z"/>
<path d="M3704 2169 c-8 -14 21 -43 35 -35 19 12 13 46 -8 46 -11 0 -23 -5
-27 -11z"/>
<path d="M1300 2039 c0 -6 11 -24 25 -41 28 -33 33 -82 11 -110 -7 -10 -15
-18 -18 -18 -3 0 -22 36 -42 80 -20 44 -43 80 -50 80 -28 0 -66 -59 -66 -102
0 -53 51 -108 100 -108 79 0 139 64 125 132 -11 47 -85 123 -85 87z m-40 -111
c30 -67 30 -78 -1 -78 -49 0 -84 73 -59 121 17 31 30 22 60 -43z"/>
<path d="M3634 1979 c-4 -8 0 -17 10 -23 10 -6 28 -19 40 -28 l21 -17 -21 -38
c-20 -34 -28 -39 -78 -48 -30 -5 -61 -16 -68 -23 -11 -12 -3 -13 46 -10 l60 3
9 -35 c12 -47 33 -68 75 -76 52 -10 90 16 135 91 20 35 37 67 37 72 0 6 -219
130 -250 141 -4 2 -12 -3 -16 -9z m216 -151 c0 -27 -52 -98 -77 -104 -37 -10
-76 7 -87 38 -7 21 -4 37 19 82 l28 55 58 -30 c33 -16 59 -34 59 -41z"/>
<path d="M1357 1795 c-69 -24 -107 -75 -107 -143 0 -39 27 -89 88 -161 l29
-35 44 35 c24 19 74 59 112 89 37 29 67 59 67 65 0 17 -110 135 -134 145 -48
17 -63 18 -99 5z m93 -40 c15 -8 45 -35 66 -60 36 -44 36 -46 18 -59 -10 -8
-50 -39 -89 -70 -38 -31 -73 -56 -77 -56 -12 0 -75 94 -82 122 -9 39 17 94 56
118 39 24 69 25 108 5z"/>
<path d="M3484 1720 c-51 -20 -100 -120 -59 -120 8 0 15 9 15 20 0 34 44 70
85 70 21 0 35 -5 35 -12 0 -7 -25 -40 -55 -73 -30 -33 -55 -63 -55 -67 0 -11
56 -38 80 -38 58 0 110 55 110 117 -1 78 -83 133 -156 103z m126 -105 c0 -37
-10 -55 -42 -71 -29 -15 -68 -11 -68 7 0 6 19 33 42 60 32 38 44 46 55 38 7
-6 13 -22 13 -34z"/>
<path d="M3312 1555 c-21 -9 -38 -26 -45 -45 -8 -21 -16 -28 -28 -25 -33 11
-29 -14 12 -67 54 -69 78 -88 111 -88 33 0 108 63 108 91 0 28 -11 23 -43 -16
-22 -28 -35 -35 -62 -35 -52 0 -52 18 -1 66 47 46 57 76 34 106 -19 24 -49 29
-86 13z m64 -47 c5 -18 -1 -29 -32 -55 -22 -18 -43 -31 -49 -30 -18 6 -17 68
1 88 24 27 71 25 80 -3z"/>
<path d="M1695 1496 c-50 -22 -70 -52 -70 -108 0 -43 4 -53 33 -79 20 -18 43
-29 62 -29 37 0 37 -6 -1 -58 -29 -40 -31 -62 -6 -62 16 1 179 248 172 261 -4
5 -15 7 -24 4 -12 -4 -21 2 -29 19 -22 48 -88 73 -137 52z m84 -36 c31 -16 46
-65 31 -100 -15 -36 -37 -50 -77 -50 -62 0 -96 55 -68 110 24 46 71 63 114 40z"/>
<path d="M3090 1409 c-54 -22 -96 -89 -55 -89 8 0 15 4 15 10 0 19 44 50 71
50 41 0 58 -9 74 -41 32 -60 5 -109 -65 -118 -62 -8 -65 -31 -5 -31 40 0 52 5
81 34 26 26 34 42 34 70 0 52 -25 95 -65 112 -39 16 -51 17 -85 3z"/>
<path d="M1930 1355 c0 -10 10 -15 33 -15 48 0 80 -21 91 -58 5 -18 7 -35 4
-38 -3 -3 -44 11 -92 30 l-85 34 -7 -33 c-9 -48 7 -86 46 -112 38 -27 70 -29
110 -8 42 21 60 53 60 103 0 37 -6 50 -34 78 -29 29 -41 34 -80 34 -34 0 -46
-4 -46 -15z m6 -93 c5 -5 30 -17 57 -26 26 -10 47 -20 47 -24 0 -14 -35 -42
-52 -42 -33 0 -77 29 -84 55 -9 36 9 57 32 37z"/>
<path d="M2872 1314 c-29 -20 -19 -37 14 -22 20 9 28 9 38 -3 12 -12 56 -119
56 -135 0 -3 -13 -10 -30 -15 -16 -6 -30 -15 -30 -19 0 -16 18 -20 45 -10 23
9 28 7 32 -10 3 -11 14 -20 25 -20 17 0 19 5 13 30 -5 23 -3 30 9 30 9 0 16 7
16 16 0 10 -7 14 -22 12 -19 -3 -25 6 -45 61 -35 99 -68 122 -121 85z"/>
<path d="M2155 1143 c-36 -75 -63 -138 -61 -141 15 -14 39 18 84 112 28 58 55
106 60 106 5 0 12 -17 15 -37 28 -170 41 -212 67 -213 3 0 31 52 63 116 32 64
60 114 63 112 2 -3 15 -59 27 -124 18 -92 27 -120 40 -122 22 -4 21 5 -12 168
-24 119 -30 135 -49 138 -18 3 -29 -13 -73 -107 -29 -61 -55 -111 -59 -111 -4
0 -15 44 -25 98 -24 126 -30 142 -54 142 -16 0 -34 -28 -86 -137z"/>
<path d="M2680 1265 c-10 -12 -10 -18 0 -29 16 -20 42 -8 38 17 -4 26 -21 32
-38 12z"/>
</g>
</svg>
