<svg width="100" height="125" viewBox="0 0 100 125" fill="none" xmlns="http://www.w3.org/2000/svg">
<path d="M93.1299 74.0602H6.87988C6.61467 74.0602 6.36031 73.9548 6.17278 73.7673C5.98524 73.5798 5.87988 73.3254 5.87988 73.0602V21.2002C5.87988 20.935 5.98524 20.6806 6.17278 20.4931C6.36031 20.3056 6.61467 20.2002 6.87988 20.2002H27.5599C27.8251 20.2002 28.0795 20.3056 28.267 20.4931C28.4545 20.6806 28.5599 20.935 28.5599 21.2002C28.5599 21.4654 28.4545 21.7198 28.267 21.9073C28.0795 22.0948 27.8251 22.2002 27.5599 22.2002H7.87988V72.0602H92.1299V22.2002H72.4399C72.1747 22.2002 71.9203 22.0948 71.7328 21.9073C71.5452 21.7198 71.4399 21.4654 71.4399 21.2002C71.4399 20.935 71.5452 20.6806 71.7328 20.4931C71.9203 20.3056 72.1747 20.2002 72.4399 20.2002H93.1299C93.3951 20.2002 93.6495 20.3056 93.837 20.4931C94.0245 20.6806 94.1299 20.935 94.1299 21.2002V73.0602C94.1299 73.3254 94.0245 73.5798 93.837 73.7673C93.6495 73.9548 93.3951 74.0602 93.1299 74.0602ZM90.1299 71.0602H9.87988C9.61467 71.0602 9.36031 70.9548 9.17278 70.7673C8.98524 70.5798 8.87988 70.3254 8.87988 70.0602V24.2002C8.87988 23.935 8.98524 23.6806 9.17278 23.4931C9.36031 23.3056 9.61467 23.2002 9.87988 23.2002H27.5599C27.8251 23.2002 28.0795 23.3056 28.267 23.4931C28.4545 23.6806 28.5599 23.935 28.5599 24.2002C28.5599 24.4654 28.4545 24.7198 28.267 24.9073C28.0795 25.0948 27.8251 25.2002 27.5599 25.2002H10.8799V69.0602H89.1299V25.2002H72.4399C72.1747 25.2002 71.9203 25.0948 71.7328 24.9073C71.5452 24.7198 71.4399 24.4654 71.4399 24.2002C71.4399 23.935 71.5452 23.6806 71.7328 23.4931C71.9203 23.3056 72.1747 23.2002 72.4399 23.2002H90.1299C90.3951 23.2002 90.6495 23.3056 90.837 23.4931C91.0245 23.6806 91.1299 23.935 91.1299 24.2002V70.0602C91.1299 70.3254 91.0245 70.5798 90.837 70.7673C90.6495 70.9548 90.3951 71.0602 90.1299 71.0602Z" fill="black"/>
<path d="M56 84.1198H44C43.7348 84.1198 43.4804 84.0145 43.2929 83.8269C43.1054 83.6394 43 83.385 43 83.1198V73.0698C43 72.8046 43.1054 72.5503 43.2929 72.3627C43.4804 72.1752 43.7348 72.0698 44 72.0698C44.2652 72.0698 44.5196 72.1752 44.7071 72.3627C44.8946 72.5503 45 72.8046 45 73.0698V82.1198H55V73.0698C55 72.8046 55.1054 72.5503 55.2929 72.3627C55.4804 72.1752 55.7348 72.0698 56 72.0698C56.2652 72.0698 56.5196 72.1752 56.7071 72.3627C56.8946 72.5503 57 72.8046 57 73.0698V83.1198C57 83.385 56.8946 83.6394 56.7071 83.8269C56.5196 84.0145 56.2652 84.1198 56 84.1198Z" fill="black"/>
<path d="M74.8799 90.8598H25.1299C24.8647 90.8598 24.6103 90.7545 24.4228 90.567C24.2352 90.3794 24.1299 90.1251 24.1299 89.8598V84.8598C24.1325 84.126 24.4252 83.423 24.9441 82.9041C25.463 82.3852 26.166 82.0925 26.8999 82.0898H73.1099C73.8437 82.0925 74.5468 82.3852 75.0657 82.9041C75.5846 83.423 75.8772 84.126 75.8799 84.8598V89.8598C75.8799 90.1251 75.7745 90.3794 75.587 90.567C75.3995 90.7545 75.1451 90.8598 74.8799 90.8598ZM26.1299 88.8598H73.8799V84.8598C73.8773 84.6564 73.7953 84.4621 73.6515 84.3182C73.5076 84.1744 73.3133 84.0924 73.1099 84.0898H26.8999C26.6965 84.0924 26.5021 84.1744 26.3583 84.3182C26.2144 84.4621 26.1325 84.6564 26.1299 84.8598V88.8598Z" fill="black"/>
<path d="M90.1299 60H9.87988C9.61467 60 9.36031 59.8946 9.17278 59.7071C8.98524 59.5196 8.87988 59.2652 8.87988 59C8.87988 58.7348 8.98524 58.4804 9.17278 58.2929C9.36031 58.1054 9.61467 58 9.87988 58H90.1299C90.3951 58 90.6495 58.1054 90.837 58.2929C91.0245 58.4804 91.1299 58.7348 91.1299 59C91.1299 59.2652 91.0245 59.5196 90.837 59.7071C90.6495 59.8946 90.3951 60 90.1299 60Z" fill="black"/>
<path d="M51.5704 65.3599H48.4404C48.1752 65.3599 47.9209 65.2545 47.7333 65.067C47.5458 64.8794 47.4404 64.6251 47.4404 64.3599C47.4404 64.0946 47.5458 63.8403 47.7333 63.6528C47.9209 63.4652 48.1752 63.3599 48.4404 63.3599H51.5704C51.8356 63.3599 52.09 63.4652 52.2775 63.6528C52.4651 63.8403 52.5704 64.0946 52.5704 64.3599C52.5704 64.6251 52.4651 64.8794 52.2775 65.067C52.09 65.2545 51.8356 65.3599 51.5704 65.3599Z" fill="black"/>
<path d="M39.9102 35.0701L46.8002 31.8701V33.3901L41.5902 35.6701L46.8002 38.0001V39.5001L39.9102 36.3001V35.0701Z" fill="black"/>
<path d="M47.8604 40.0802L50.9304 29.6802H52.3804L49.3104 40.0802H47.8604Z" fill="black"/>
<path d="M60.1 36.3501L53.21 39.5001V38.0001L58.53 35.7201L53.21 33.4401V31.8701L60.1 35.0001V36.3501Z" fill="black"/>
<path d="M63.5703 53.9999H36.4403C33.8234 53.9972 31.3145 52.9565 29.4641 51.1061C27.6137 49.2557 26.573 46.7468 26.5703 44.1299V18.9999C26.5703 16.3822 27.6102 13.8717 29.4612 12.0207C31.3122 10.1698 33.8226 9.12988 36.4403 9.12988H63.5703C66.188 9.12988 68.6985 10.1698 70.5495 12.0207C72.4004 13.8717 73.4403 16.3822 73.4403 18.9999V44.1299C73.4377 46.7468 72.3969 49.2557 70.5465 51.1061C68.6961 52.9565 66.1872 53.9972 63.5703 53.9999ZM36.4403 11.1399C34.3556 11.1425 32.3569 11.9712 30.8818 13.4443C29.4068 14.9175 28.5756 16.9152 28.5703 18.9999V44.1299C28.573 46.2163 29.403 48.2166 30.8783 49.6919C32.3536 51.1672 34.3539 51.9972 36.4403 51.9999H63.5703C65.6568 51.9972 67.657 51.1672 69.1323 49.6919C70.6077 48.2166 71.4377 46.2163 71.4403 44.1299V18.9999C71.4377 16.9134 70.6077 14.9132 69.1323 13.4379C67.657 11.9625 65.6568 11.1325 63.5703 11.1299L36.4403 11.1399Z" fill="black"/>
<path d="M72.4403 19.8701H27.5703C27.3051 19.8701 27.0507 19.7648 26.8632 19.5772C26.6757 19.3897 26.5703 19.1353 26.5703 18.8701C26.5703 18.6049 26.6757 18.3505 26.8632 18.163C27.0507 17.9755 27.3051 17.8701 27.5703 17.8701H72.4403C72.7055 17.8701 72.9599 17.9755 73.1474 18.163C73.335 18.3505 73.4403 18.6049 73.4403 18.8701C73.4403 19.1353 73.335 19.3897 73.1474 19.5772C72.9599 19.7648 72.7055 19.8701 72.4403 19.8701Z" fill="black"/>
<path d="M34.8 15.6802H33C32.7348 15.6802 32.4804 15.5748 32.2929 15.3873C32.1054 15.1997 32 14.9454 32 14.6802C32 14.415 32.1054 14.1606 32.2929 13.9731C32.4804 13.7855 32.7348 13.6802 33 13.6802H34.8C35.0652 13.6802 35.3196 13.7855 35.5071 13.9731C35.6946 14.1606 35.8 14.415 35.8 14.6802C35.8 14.9454 35.6946 15.1997 35.5071 15.3873C35.3196 15.5748 35.0652 15.6802 34.8 15.6802Z" fill="black"/>
<path d="M38.9997 15.6802H37.1797C36.9145 15.6802 36.6601 15.5748 36.4726 15.3873C36.285 15.1997 36.1797 14.9454 36.1797 14.6802C36.1797 14.415 36.285 14.1606 36.4726 13.9731C36.6601 13.7855 36.9145 13.6802 37.1797 13.6802H38.9997C39.2649 13.6802 39.5193 13.7855 39.7068 13.9731C39.8943 14.1606 39.9997 14.415 39.9997 14.6802C39.9997 14.9454 39.8943 15.1997 39.7068 15.3873C39.5193 15.5748 39.2649 15.6802 38.9997 15.6802Z" fill="black"/>
</svg>
