<svg width="66" height="83" viewBox="0 0 66 83" fill="none" xmlns="http://www.w3.org/2000/svg">
<path d="M28 59H38C38.2652 59 38.5196 58.8946 38.7071 58.7071C38.8946 58.5196 39 58.2652 39 58C39 57.7348 38.8946 57.4804 38.7071 57.2929C38.5196 57.1054 38.2652 57 38 57H28C27.7348 57 27.4804 57.1054 27.2929 57.2929C27.1054 57.4804 27 57.7348 27 58C27 58.2652 27.1054 58.5196 27.2929 58.7071C27.4804 58.8946 27.7348 59 28 59Z" fill="black"/>
<path d="M60 1H6C5.34339 1 4.69321 1.12933 4.08658 1.3806C3.47995 1.63188 2.92876 2.00017 2.46447 2.46447C1.52678 3.40215 1 4.67392 1 6V46C1 47.3261 1.52678 48.5979 2.46447 49.5355C2.92876 49.9998 3.47995 50.3681 4.08658 50.6194C4.69321 50.8707 5.34339 51 6 51H23.56L21.31 57H21C19.9391 57 18.9217 57.4214 18.1716 58.1716C17.4214 58.9217 17 59.9391 17 61C17 62.0609 17.4214 63.0783 18.1716 63.8284C18.9217 64.5786 19.9391 65 21 65H45C46.0609 65 47.0783 64.5786 47.8284 63.8284C48.5786 63.0783 49 62.0609 49 61C49 59.9391 48.5786 58.9217 47.8284 58.1716C47.0783 57.4214 46.0609 57 45 57H44.69L42.44 51H60C61.3261 51 62.5979 50.4732 63.5355 49.5355C64.4732 48.5979 65 47.3261 65 46V6C65 5.34339 64.8707 4.69321 64.6194 4.08658C64.3681 3.47995 63.9998 2.92876 63.5355 2.46447C63.0712 2.00017 62.52 1.63188 61.9134 1.3806C61.3068 1.12933 60.6566 1 60 1ZM6 3H60C60.7956 3 61.5587 3.31607 62.1213 3.87868C62.6839 4.44129 63 5.20435 63 6V43H3V6C3 5.20435 3.31607 4.44129 3.87868 3.87868C4.44129 3.31607 5.20435 3 6 3ZM43.06 58.35C43.1315 58.5414 43.2599 58.7063 43.428 58.8225C43.5961 58.9387 43.7957 59.0007 44 59H45C45.5304 59 46.0391 59.2107 46.4142 59.5858C46.7893 59.9609 47 60.4696 47 61C47 61.5304 46.7893 62.0391 46.4142 62.4142C46.0391 62.7893 45.5304 63 45 63H21C20.4696 63 19.9609 62.7893 19.5858 62.4142C19.2107 62.0391 19 61.5304 19 61C19 60.4696 19.2107 59.9609 19.5858 59.5858C19.9609 59.2107 20.4696 59 21 59H22C22.2043 59.0007 22.4039 58.9387 22.572 58.8225C22.7401 58.7063 22.8685 58.5414 22.94 58.35L25.69 51H40.31L43.06 58.35ZM60 49H6C5.20435 49 4.44129 48.6839 3.87868 48.1213C3.31607 47.5587 3 46.7956 3 46V45H63V46C63 46.7956 62.6839 47.5587 62.1213 48.1213C61.5587 48.6839 60.7956 49 60 49Z" fill="black"/>
<path d="M25.2899 29.7102C25.3829 29.8039 25.4935 29.8783 25.6154 29.9291C25.7372 29.9798 25.8679 30.006 25.9999 30.006C26.132 30.006 26.2627 29.9798 26.3845 29.9291C26.5064 29.8783 26.617 29.8039 26.7099 29.7102C26.8037 29.6172 26.8781 29.5066 26.9288 29.3848C26.9796 29.2629 27.0057 29.1322 27.0057 29.0002C27.0057 28.8682 26.9796 28.7375 26.9288 28.6156C26.8781 28.4937 26.8037 28.3831 26.7099 28.2902L19.4099 21.0002L26.7099 13.7102C26.8032 13.6169 26.8771 13.5063 26.9276 13.3844C26.9781 13.2626 27.004 13.132 27.004 13.0002C27.004 12.8683 26.9781 12.7378 26.9276 12.6159C26.8771 12.4941 26.8032 12.3834 26.7099 12.2902C26.6167 12.1969 26.506 12.123 26.3842 12.0725C26.2624 12.0221 26.1318 11.9961 25.9999 11.9961C25.8681 11.9961 25.7375 12.0221 25.6157 12.0725C25.4939 12.123 25.3832 12.1969 25.2899 12.2902L17.2899 20.2902C17.1962 20.3831 17.1218 20.4937 17.071 20.6156C17.0203 20.7375 16.9941 20.8682 16.9941 21.0002C16.9941 21.1322 17.0203 21.2629 17.071 21.3848C17.1218 21.5066 17.1962 21.6172 17.2899 21.7102L25.2899 29.7102Z" fill="black"/>
<path d="M39.2899 29.7102C39.3829 29.8039 39.4935 29.8783 39.6154 29.9291C39.7372 29.9798 39.8679 30.006 39.9999 30.006C40.132 30.006 40.2627 29.9798 40.3845 29.9291C40.5064 29.8783 40.617 29.8039 40.7099 29.7102L48.7099 21.7102C48.8037 21.6172 48.8781 21.5066 48.9288 21.3848C48.9796 21.2629 49.0057 21.1322 49.0057 21.0002C49.0057 20.8682 48.9796 20.7375 48.9288 20.6156C48.8781 20.4937 48.8037 20.3831 48.7099 20.2902L40.7099 12.2902C40.5216 12.1019 40.2662 11.9961 39.9999 11.9961C39.7336 11.9961 39.4782 12.1019 39.2899 12.2902C39.1016 12.4785 38.9958 12.7339 38.9958 13.0002C38.9958 13.2665 39.1016 13.5219 39.2899 13.7102L46.5899 21.0002L39.2899 28.2902C39.1962 28.3831 39.1218 28.4937 39.071 28.6156C39.0203 28.7375 38.9941 28.8682 38.9941 29.0002C38.9941 29.1322 39.0203 29.2629 39.071 29.3848C39.1218 29.5066 39.1962 29.6172 39.2899 29.7102Z" fill="black"/>
</svg>
