<svg width="136" height="98" viewBox="0 0 136 98" fill="none" xmlns="http://www.w3.org/2000/svg">
<path fill-rule="evenodd" clip-rule="evenodd" d="M68.2661 68.0379C88.9863 68.0379 105.81 73.1737 105.81 79.372C105.81 85.5704 88.9863 90.7061 68.2661 90.7061C47.5459 90.7061 30.7218 85.5704 30.7218 79.372C30.7218 73.1737 47.5459 68.0379 68.2661 68.0379ZM9.82454 89.8207C13.7206 89.8207 16.7313 91.5916 16.7313 93.5397C16.7313 95.6648 13.7206 97.2587 9.82454 97.2587C6.10554 97.2587 3.09491 95.6648 3.09491 93.5397C3.09491 91.5916 6.10554 89.8207 9.82454 89.8207ZM6.63682 59.1831L3.4491 89.9977C5.22006 89.1123 7.34521 88.581 9.82454 88.581C12.3039 88.581 14.6061 89.1123 16.2 89.9977L11.5955 59.1831C12.481 58.4747 13.0123 57.5892 13.0123 56.3496C13.0123 54.9328 12.3039 53.8702 11.2413 53.1619V36.1607L31.076 45.7238C31.6073 42.1819 32.4928 37.7545 33.5554 35.6294C35.3263 31.9104 45.4208 30.1394 48.9627 29.431C57.6404 27.8372 67.2035 27.483 76.0583 28.3685C84.9131 29.0769 94.2992 31.5562 101.56 36.8691C102.268 37.2232 102.623 37.9316 102.8 38.64L104.394 46.7864L135.385 31.3791L68.4432 0.564453L0.438477 31.0249L7.16811 34.2126V53.1619C6.10554 53.8702 5.39715 54.9328 5.39715 56.3496C5.39715 57.4122 5.92844 58.4747 6.63682 59.1831ZM29.4822 73.5279C29.4822 73.5279 34.4408 40.7652 36.3889 37.0462C38.1598 33.1501 79.246 24.4724 99.7891 39.3484L106.696 73.705C106.696 73.705 68.089 52.2764 29.4822 73.5279Z" fill="black"/>
</svg>
