<svg width="22" height="27" viewBox="0 0 22 27" fill="none" xmlns="http://www.w3.org/2000/svg">
    <path
        d="M14.5123 0.264648C14.393 0.264648 14.2962 0.361455 14.2962 0.480835V1.15509C14.2962 1.27447 14.3929 1.37129 14.5123 1.37129C14.6318 1.37129 14.7286 1.27448 14.7285 1.15509V0.480835C14.7285 0.361415 14.6317 0.264578 14.5123 0.264648ZM13.1123 0.455719C12.997 0.486719 12.9287 0.605163 12.9596 0.720413L13.1342 1.37202C13.1651 1.48737 13.2837 1.55579 13.3991 1.52478C13.5142 1.49378 13.5825 1.37555 13.5517 1.26039L13.3771 0.608383C13.3452 0.489233 13.2265 0.425109 13.1123 0.455719ZM15.7015 0.608383L15.5268 1.26039C15.496 1.37558 15.5644 1.49389 15.6795 1.52478C15.7947 1.55558 15.913 1.48719 15.9439 1.37202L16.1189 0.720413C16.1499 0.605133 16.0816 0.486609 15.9662 0.455719C15.8528 0.426919 15.734 0.487113 15.7015 0.608383ZM16.8985 1.22252L16.5608 1.80711C16.5013 1.91049 16.5368 2.04254 16.6401 2.10211C16.7434 2.16171 16.8755 2.12641 16.9352 2.02321L17.2725 1.43861C17.3321 1.33532 17.2968 1.20324 17.1936 1.14352C17.0833 1.07982 16.9574 1.12492 16.8985 1.22252ZM11.8845 1.14352C11.7813 1.20322 11.746 1.33531 11.8056 1.43861L12.1433 2.02321C12.203 2.12646 12.3351 2.16179 12.4384 2.10211C12.5416 2.04241 12.5769 1.91038 12.5174 1.80711L12.1796 1.22252C12.1164 1.11307 11.9794 1.08876 11.8845 1.14352ZM14.5123 1.91992C13.4816 1.91992 12.5852 2.50719 12.1319 3.3667C6.99428 3.4658 2.857 7.63812 2.82121 12.7777L0.751339 16.7712C0.621239 16.9959 0.593962 17.2574 0.673642 17.4882C0.753242 17.719 0.9467 17.9155 1.21391 17.9962L2.7164 18.45L3.38751 21.3693C3.02359 22.0684 3.07935 22.8138 3.36791 23.3845C3.66922 23.9803 4.20914 24.4161 4.80184 24.4161H9.96297V25.9777C9.96297 26.097 10.0597 26.1938 10.1791 26.1938C10.2984 26.1938 10.3951 26.0971 10.3951 25.9777V24.3349C10.5759 24.2461 10.94 24.0622 11.359 23.8192C11.9486 23.4772 12.6301 23.0362 13.0289 22.5675C13.1062 22.4766 13.0952 22.3402 13.0042 22.2629C12.9133 22.1854 12.777 22.1963 12.6995 22.2872C12.3757 22.6677 11.7145 23.1132 11.1421 23.4452C10.5909 23.7649 10.1599 23.9679 10.126 23.9839H4.80183C4.4335 23.9839 3.99741 23.6714 3.75353 23.1892C3.50964 22.7069 3.45621 22.0867 3.79973 21.4933C3.82723 21.446 3.83553 21.3899 3.82323 21.3366L3.10907 18.2311C3.09167 18.1555 3.03537 18.095 2.96115 18.0724L1.3386 17.5827C1.1945 17.5392 1.11853 17.4539 1.08183 17.3474C1.04953 17.2269 1.04443 17.1328 1.12993 16.979L3.22218 12.9424C3.23808 12.9117 3.24648 12.8777 3.24658 12.8431C3.24658 7.96846 7.10712 3.99825 11.948 3.80444C11.8633 4.06824 11.817 4.34931 11.817 4.64108C11.817 4.92542 11.8606 5.19982 11.9411 5.4579C11.3656 5.63224 10.8428 5.94456 10.4027 6.3588C10.2422 6.3171 10.081 6.29139 9.92129 6.28189C8.80879 6.21579 7.75988 6.90488 7.3989 7.98788C7.10557 8.03518 6.82511 8.16415 6.60087 8.36708C6.03997 8.85025 5.92882 9.71242 6.31473 10.3285C5.70687 11.1087 5.59496 12.2115 6.11924 13.119C6.77641 14.2565 8.19917 14.6824 9.36561 14.125C9.90179 14.8017 10.7491 15.1941 11.512 15.1941C12.192 15.1941 12.6658 15.0152 13.0557 14.7275C13.3228 15.4126 14.2224 15.6619 14.6222 15.7723C16.1661 16.1857 16.9434 17.1692 17.0511 17.8087C17.073 17.9346 17.1854 18.001 17.2923 17.987C17.49 17.961 17.6465 17.9471 17.8315 18.0132C17.9431 18.0531 18.0666 17.9958 18.1078 17.8828C18.4486 17.0045 18.5177 15.8867 18.0082 15.0141C19.1691 14.5531 19.8329 13.2909 19.5042 12.065C19.4326 11.7979 19.3187 11.5527 19.1724 11.3341C19.4009 11.0447 19.5294 10.6766 19.5011 10.295C19.4711 9.6934 19.0772 9.14022 18.5115 8.92892C18.4682 7.86376 17.7405 6.90162 16.6575 6.61163C16.5788 6.59053 16.4999 6.57474 16.4211 6.56154C16.7856 6.19218 17.0456 5.71711 17.1527 5.18672C19.4679 6.74177 21.3179 9.15644 21.3908 12.8498C21.5115 16.6547 19.9161 20.8673 16.8413 22.638C16.7744 22.6766 16.7332 22.7481 16.7333 22.8254V25.9777C16.7333 26.0969 16.8299 26.1936 16.949 26.1937C17.0684 26.1937 17.1651 26.097 17.1651 25.9777V22.9356C20.3611 21.0158 21.9457 16.7246 21.8226 12.8366C21.8206 9.3883 19.9696 6.36868 17.2052 4.71257C17.2052 2.78667 15.6885 1.91992 14.5123 1.91992ZM10.8486 2.03555C10.764 2.11995 10.764 2.25698 10.8486 2.3414L11.3259 2.8183C11.4103 2.9026 11.547 2.9026 11.6313 2.8183C11.7158 2.7339 11.7158 2.59694 11.6313 2.51254L11.154 2.03555C11.0725 1.95415 10.9378 1.94905 10.8486 2.03555ZM17.9241 2.03555L17.4468 2.51254C17.3623 2.59694 17.3623 2.73389 17.4468 2.8183C17.5312 2.9026 17.6679 2.9026 17.7523 2.8183L18.23 2.3414C18.3146 2.257 18.3146 2.11997 18.23 2.03555C18.1469 1.95245 18.0134 1.94905 17.9241 2.03555ZM14.5123 2.35175C15.7634 2.35175 16.7753 3.37307 16.7753 4.64108C16.7753 5.2751 16.5213 5.84608 16.1113 6.26036C15.9184 6.45532 15.3821 6.93369 15.2874 7.64204H15.0416L15.3107 4.8042C15.3197 4.7112 15.2678 4.62306 15.1823 4.58559L14.8904 4.45802C14.8352 4.43392 14.7725 4.43392 14.7173 4.45802L14.5123 4.54773L14.307 4.45802C14.2572 4.43622 14.1763 4.43352 14.1339 4.45802L13.8425 4.58559C13.7568 4.62289 13.7048 4.71113 13.7137 4.8042L13.983 7.64204H13.7369C13.6421 6.93369 13.1059 6.45532 12.913 6.26036C12.503 5.84608 12.2494 5.2751 12.2494 4.64108C12.2494 3.37307 13.2612 2.35175 14.5123 2.35175ZM18.3189 3.2462L17.7343 3.58351C17.631 3.64321 17.5957 3.77529 17.6553 3.8786C17.715 3.98188 17.8471 4.01726 17.9504 3.95761L18.535 3.62021C18.6384 3.56061 18.674 3.4285 18.6143 3.3251C18.5484 3.21569 18.4347 3.19097 18.3189 3.2462ZM14.2205 4.89186L14.4258 4.98157C14.481 5.00567 14.5437 5.00567 14.5989 4.98157L14.8038 4.89186L14.8656 4.91896L14.6075 7.64204H14.4172L14.1586 4.91896L14.2205 4.89186ZM12.1037 5.86082C12.2337 6.12202 12.4034 6.35958 12.6059 6.56422C12.8425 6.80339 13.3197 7.2527 13.3197 7.85822V8.93489C13.3197 9.05422 13.4165 9.15095 13.5358 9.15096H13.643C13.7402 9.54224 14.0933 9.836 14.5123 9.836C14.9313 9.836 15.2842 9.54224 15.3814 9.15096H15.4889C15.6082 9.15101 15.705 9.05426 15.7051 8.93489V7.85822C15.7051 7.50017 15.8721 7.19729 16.0573 6.95964C16.2189 6.96364 16.3825 6.98544 16.546 7.02914C17.6536 7.3257 18.3073 8.45752 18.0106 9.5641C17.9796 9.67939 18.048 9.79791 18.1634 9.8288C18.2787 9.8598 18.3972 9.7914 18.4281 9.67615C18.4534 9.58145 18.4724 9.48654 18.4863 9.3918C18.8154 9.57465 19.0527 9.94322 19.0705 10.3189C19.0705 11.0087 18.5692 11.4198 18.0951 11.4836C17.9764 11.4955 17.8898 11.6015 17.9017 11.7202C17.9135 11.839 18.0194 11.9257 18.1382 11.9139C18.402 11.8876 18.647 11.7882 18.8548 11.6384C18.9554 11.8017 19.0345 11.9816 19.0869 12.1767C19.3801 13.2703 18.7249 14.3933 17.6162 14.6901C17.3391 14.7643 17.0615 14.7796 16.7952 14.7435C16.6769 14.7274 16.5681 14.8103 16.552 14.9286C16.5363 15.0468 16.6192 15.1554 16.7374 15.1713C17.0111 15.2084 17.2952 15.2003 17.5789 15.1423C18.022 15.8226 18.0222 16.7697 17.7668 17.5522C17.7023 17.5415 17.6395 17.5363 17.5791 17.5349C17.5279 17.5339 17.4788 17.5357 17.431 17.5388C17.1874 16.7001 16.2822 15.7693 14.7341 15.3548C13.9581 15.147 13.6261 14.8932 13.4875 14.6326C13.349 14.3721 13.3765 14.0396 13.4572 13.6115C13.4793 13.4941 13.4019 13.381 13.2845 13.3591C13.1378 13.3346 13.0513 13.4432 13.0325 13.5313C12.9869 13.7734 12.9489 14.0158 12.9577 14.2522C12.5852 14.581 12.2235 14.7619 11.5121 14.7619C10.7513 14.7619 9.785 14.2213 9.42255 13.3898C9.35545 13.2584 9.24144 13.238 9.13833 13.278C9.02886 13.3256 8.97869 13.4529 9.02628 13.5624C9.05598 13.6306 9.08888 13.6968 9.12408 13.7613C8.16701 14.1858 7.02892 13.83 6.49334 12.9029C5.92009 11.9107 6.25885 10.6482 7.25181 10.0753C7.35504 10.0156 7.39038 9.88347 7.33071 9.78017C7.25371 9.66082 7.13467 9.64727 7.03561 9.70126C6.88731 9.78686 6.75111 9.88546 6.62752 9.99478C6.43458 9.56996 6.53052 8.99604 6.88412 8.69276C7.31203 8.33024 7.83817 8.34473 8.19436 8.54843C8.29622 8.61073 8.42925 8.57853 8.49146 8.47673C8.55376 8.37489 8.52156 8.24184 8.41976 8.17963C8.24659 8.07388 8.05655 8.00943 7.86229 7.98222C8.25506 7.03739 9.29259 6.50857 10.3095 6.78085C10.5863 6.85495 10.8343 6.98095 11.0464 7.14612C11.1405 7.21932 11.2761 7.20252 11.3494 7.10852C11.4228 7.01432 11.4059 6.87839 11.3115 6.8051C11.1742 6.69817 11.0241 6.60527 10.8634 6.52783C11.2306 6.22109 11.6502 5.99227 12.1037 5.86082ZM11.6633 7.21381C11.5913 7.30901 11.6102 7.44456 11.7055 7.51649C12.1336 7.83983 12.2483 8.54732 11.9296 9.00462C11.8612 9.10262 11.8853 9.23752 11.9834 9.30574C12.0813 9.37384 12.2159 9.34973 12.2841 9.25183C12.7434 8.59287 12.5955 7.64709 11.9659 7.1716C11.8607 7.0947 11.7316 7.12691 11.6633 7.21381ZM8.9836 8.30006C9.0061 8.41738 9.11951 8.49418 9.23681 8.47151C9.35375 8.44881 9.43025 8.33573 9.40784 8.21873C9.35544 7.94659 9.69916 7.66941 9.95941 7.74533C10.0739 7.77873 10.1938 7.71302 10.2273 7.59857C10.2607 7.48398 10.1949 7.36405 10.0802 7.3307C9.45343 7.15754 8.86696 7.7218 8.9836 8.30006ZM13.7515 8.0743H15.2728V8.7187H13.7515V8.0743ZM10.3075 8.39618C9.62938 8.7781 9.19503 9.33757 8.9892 10.0669C8.9128 10.344 8.8835 10.6225 8.8953 10.8949C8.8953 11.9714 7.96663 12.5007 7.26293 12.5308C7.14372 12.5328 7.04844 12.6305 7.05003 12.7497C7.05203 12.8691 7.14953 12.9646 7.26895 12.963C8.07092 12.9524 8.76617 12.4916 9.10567 11.8249C9.3804 12.4748 9.90578 13.0169 10.597 13.3068C10.707 13.3529 10.8336 13.3008 10.8797 13.1911C10.9257 13.0812 10.8737 12.9547 10.7641 12.9085C9.77272 12.4927 9.18991 11.4797 9.35095 10.4403C9.51783 10.7135 9.79798 10.9144 10.1479 10.9358C10.2671 10.9428 10.3696 10.8524 10.3769 10.7332C10.3839 10.6142 10.2932 10.512 10.1743 10.5048C9.74908 10.4788 9.48264 9.88889 9.69849 9.53488C9.90696 9.21711 10.19 8.95766 10.5192 8.77293C10.6233 8.71453 10.6602 8.58272 10.6017 8.47868C10.5426 8.36937 10.4168 8.33871 10.3075 8.39618ZM16.6767 8.66174C16.3602 9.00581 16.2832 9.46528 16.3857 9.88284C16.4724 10.3261 16.0474 10.7083 15.7058 10.6894C15.587 10.677 15.4807 10.7635 15.4685 10.8824C15.4565 11.0011 15.5428 11.1072 15.6616 11.1192C16.1178 11.1659 16.5197 10.8929 16.7119 10.512C16.9178 10.7466 17.2005 10.913 17.5377 10.9501C17.6563 10.9632 17.7631 10.8777 17.7762 10.7592C17.7892 10.6406 17.7037 10.5338 17.5852 10.5207C16.8932 10.4445 16.5223 9.4683 16.9951 8.95441C17.076 8.86651 17.0702 8.72975 16.9822 8.64897C16.8994 8.57017 16.7636 8.57024 16.6767 8.66174ZM14.0993 9.15096H14.9251C14.8484 9.30208 14.6934 9.40375 14.5123 9.40375C14.3313 9.40375 14.1761 9.30208 14.0993 9.15096ZM10.8968 9.61549C11.2028 9.91777 11.5532 10.1636 11.93 10.346C12.3277 10.5386 12.7552 10.6599 13.1903 10.7024C13.6896 10.8916 14.1194 11.2408 14.3505 11.6915C14.8398 12.5389 14.5348 13.6431 13.9872 14.0852C13.8988 14.1651 13.8917 14.3016 13.9715 14.3902C14.0516 14.4788 14.1885 14.4856 14.277 14.4054C14.9546 13.7923 15.1806 12.8274 14.9319 11.9739C15.6785 11.9739 16.3373 12.7102 16.1241 13.4659C16.0883 13.5797 16.1515 13.7009 16.2652 13.7367C16.3791 13.7727 16.5005 13.7094 16.5364 13.5956C16.5867 13.4361 16.6066 13.2729 16.6004 13.1117C16.7111 13.1731 16.8287 13.2236 16.9518 13.261C17.4061 13.4117 17.8983 13.3591 18.3231 13.1665C18.4318 13.1172 18.48 12.9893 18.4309 12.8806C18.3816 12.7719 18.2536 12.7238 18.1449 12.773C17.4599 13.0694 16.779 12.8734 16.3567 12.339C16.2206 12.122 16.033 11.9337 15.8062 11.7968C15.4931 11.5973 15.122 11.5199 14.7605 11.5446C14.5954 11.183 14.3048 10.8839 14.0426 10.6823C14.149 10.6664 14.255 10.6455 14.3603 10.6192C14.476 10.5902 14.5463 10.4729 14.5174 10.3572C14.4886 10.2414 14.3713 10.1708 14.2554 10.1997C13.5445 10.3772 12.7873 10.281 12.1185 9.95726C11.7842 9.79538 11.4724 9.57668 11.2006 9.30809C11.1142 9.22079 10.9834 9.2228 10.8972 9.30891C10.7916 9.41447 10.826 9.5417 10.8968 9.61549ZM7.86833 9.31525C7.77843 9.39355 7.76893 9.52993 7.84703 9.61993C8.1255 9.94022 7.89293 10.5507 7.48377 10.6368C7.36696 10.6614 7.29218 10.7759 7.31676 10.8927C7.34126 11.0096 7.45589 11.0844 7.5727 11.0599C8.32237 10.9021 8.68509 9.92559 8.17281 9.33646C8.09621 9.24836 7.96378 9.23419 7.86833 9.31525ZM10.8466 11.8027C10.8005 11.9126 10.8526 12.0391 10.9618 12.0854C11.0717 12.1319 11.1985 12.0804 11.245 11.9706C11.4046 11.5921 11.9576 11.367 12.342 11.4953C12.7443 11.6295 13.0373 11.9977 13.033 12.353C13.031 12.4722 13.1271 12.57 13.2463 12.5715C13.3657 12.5735 13.4637 12.4775 13.4652 12.3582C13.4722 11.7825 13.0583 11.2706 12.5082 11.0949C11.7872 10.8474 11.0603 11.2544 10.8466 11.8027ZM11.9946 12.3521C11.8927 12.414 11.8602 12.5468 11.9221 12.6488C12.1401 13.0083 11.8399 13.5721 11.4428 13.5982C11.3238 13.6062 11.2337 13.7089 11.2415 13.8279C11.2485 13.9471 11.352 14.0375 11.4712 14.0297C12.2213 13.9803 12.6877 13.0789 12.2913 12.4251C12.2154 12.3125 12.0945 12.2948 11.9946 12.3521ZM15.1595 13.8866C15.0595 14.1682 15.1381 14.4596 15.2963 14.6741C15.4545 14.8887 15.6951 15.0455 15.9718 15.0713C16.0906 15.0824 16.1959 14.9951 16.2071 14.8764C16.2181 14.7576 16.1308 14.6522 16.0121 14.6411C15.8809 14.6289 15.7348 14.5404 15.6444 14.4178C15.5539 14.2951 15.5219 14.1574 15.5667 14.0314C15.6067 13.919 15.5479 13.7954 15.4356 13.7554C15.2886 13.71 15.1931 13.799 15.1595 13.8866Z"
        fill="black" />
</svg>