<svg xmlns="http://www.w3.org/2000/svg" version="1.1" xmlns:xlink="http://www.w3.org/1999/xlink" xmlns:svgjs="http://svgjs.dev/svgjs" width="1000" height="1125" viewBox="0 0 1000 1125"><g transform="matrix(1,0,0,1,0.00007343750002064553,0)"><svg viewBox="0 0 320 360" data-background-color="#ffffff" preserveAspectRatio="xMidYMid meet" height="1125" width="1000" xmlns="http://www.w3.org/2000/svg" xmlns:xlink="http://www.w3.org/1999/xlink"><g id="tight-bounds" transform="matrix(1,0,0,1,0.000023499999997511622,0)"><svg viewBox="0 0 320 360" height="360" width="320"><g><svg></svg></g><g><svg viewBox="0 0 320 360" height="360" width="320"><g><path transform="translate(-74.99272,-51.79039) scale(4.65793,4.65793)" d="M20.6 59.9l0.8 1-0.4-1.3c-0.1-0.6-0.8 0.1-0.4 0.3M21.5 59.3c0.3 0.5 0.6 1 0.6 1.5 0 0.7 0.6 1 1.1 1.2-0.7-0.8-1.1-3-1.7-2.7M59.9 16.9c1.7 0 3.3-0.2 5.1 0.2 4.4 1.1 8.1 3.3 10.6 6.4l7 11.2c0.3 2.8 0.9 5.9 0.8 9.3 0.7 0 0.6-1 1.4-1.2-0.8 2-1.2 4.5-1.4 7.4-0.5-1.6 0-4 0.1-5.3-0.7 1.1-1.1 0.3-1.1-0.2 0.1-0.8-0.3-0.7-0.6-1-1.1-1-1.8-2.1-2.6-3.8 0.5-1.3 0.6-3.2-1-4.2-0.5-0.3-1.1-0.8-1.4-1.6-0.4-1.1-1.1-2.4-0.9-4.1 0.1-0.5-1.5 1.1-2.4 0.4-3.9-2.7-7.8-5.8-12.5-8.4-2.5 0-4.3-0.9-5.2-2-0.8-1-0.2-2.3 1-2.4 0.7 0 1.5-0.2 2.1 0.2 0.1-0.4 0.5-0.9 1-0.9M50 14.6l0.2 0.1c1 0.2 1.5 1.6 2.6 1.1 0 0.7 0.1 1.4-0.1 1.9-0.3 0.8-1.2 0.8-1.9 0.8-6.7-0.4-10.6 2.4-14.7 4.8-1.1 0.7-2.3 1.2-3.2 2.1-4.3 4-9 7.7-10.1 15.1l-0.9 8.2c-0.1 0.9-1.1 1.8-0.9 2.9l0.7 4.9c-0.7-0.7-1.1 0.2-0.9 0.6 0.1 0.3 0.5 1.3 1.1 0.4 0.8 1.5 1.6 4.4 2.7 5.7 3.4 4 7.8 7.6 11.4 11.2 0.9-0.2 1.6-0.2 1.8-0.8 0.3 0.6-0.3 1.2-0.8 1.3 1.6 1 3.4 1.9 5.8 2.1 3.1 0.2 6 0.7 8.7 1.4 1.4-0.4 2.8-0.6 4.3-0.7 0.5 0 0.8-0.8 1.4-1l0.1-1c0.6 0.9 0.5-0.3 0.1-0.9 0.7 0.6 0.9 1.1 1.2 1.5 0-0.3 0.8-1.4 0.8-0.1l0.2-1.3c0.3-0.2 0.4 1.1 0.7 0.2 0.3-0.9 0.9-0.2 1.5-0.5-0.2 0.4-0.1 1.2 0.6 0.7l0.8-0.7c0.5 1.2 1.3 0.7 1.7 0.5 4.4-2.8 8.8-6.1 13-9.4l-0.1 1.3 0.5-1.6c0.5 0.5 0.9 0.1 1.1-0.2 0.6-1 1.4-2 2.7-2.9-1.6 4.3-3.5 7.7-5.9 10.5l-1 1.2c0 0.7-0.2 1.6-1 1.7-0.4 0.1-1.2-0.2-1.8 0.4-0.3 0.4 0.7 1.2-0.1 0.6-0.7-0.5-1.4 0-2.2 0.2-0.6 0.2 0.4 0.8 0.6 1.2 0.2 0.4 0.4 0.8 0.3 1.3l-1.1-1.2c-1.3 0.7-2.1 2-3.2 3-0.5 0.4-0.3 1.1-0.3 1.7-0.7 0-1.5-0.2-1.9 0.2-0.3 0.4-0.2 1-0.2 1.6-1-0.1-1.1-1.6-2-1.3-0.9 0.2-1.9 0.3-2.7 0.8 0.6 1.2-1 0.5-0.8 0.7-1.5-0.9-2.8-1.6-4.4-1-3.4-1.1-7.6-0.6-10.7-0.2 0-0.5 0.1-1-0.1-1.1-0.2 0.5-0.8 0.3-0.7 0.3-1.9-1.3-3.8-2.1-5.8-3.2-1.8 0.2-3.5-0.7-4-1.2-1.4-1.3-3-0.6-4.3-0.9-2.8-0.7-3.8-3.6-4.1-5.6-0.2-1-1-1.4-1.3-1.3-1.3-4.2-3.3-8-4.9-11.9-0.4-1-0.3-2-0.3-3.1 0.5 0.2 1 0.1 0.9-0.6-0.5-3.3-1.7-5.8-3-8.2 0.7-3.4 0.8-7.4 2.4-10.4 1.4-2.7 4-4.1 5.8-6.4 0.6-0.8 0.6-1.9 1.2-2.6 2-2 4-4.1 6.2-5.9 1-0.8 2.2 0 3.7-0.3 0.5-1.8 2.5-3.4 4.4-2.9 0.8 0.2 2.4-1.9 2.9-2.1 0.8-0.3 0.4 0.8 0.4 1.5 1.9-1.5 4.5-2.3 6.9-3.2" fill="#1b1b1b" fill-rule="nonzero" stroke="none" stroke-width="1" stroke-linecap="butt" stroke-linejoin="miter" stroke-miterlimit="10" stroke-dasharray="" stroke-dashoffset="0" font-family="none" font-weight="none" font-size="none" text-anchor="none" style="mix-blend-mode: normal" data-fill-palette-color="tertiary"></path></g><g transform="matrix(1,0,0,1,64,134.85201853422635)"><svg viewBox="0 0 192 90.2959629315473" height="90.2959629315473" width="192"><g><svg viewBox="0 0 192 90.2959629315473" height="90.2959629315473" width="192"><g><svg viewBox="0 0 267.901505732343 125.99179391100702" height="90.2959629315473" width="192"><g transform="matrix(1,0,0,1,0,17.412758782201408)"><svg viewBox="0 0 192 91.1662763466042" height="91.1662763466042" width="192"><g id="textblocktransform"><svg viewBox="0 0 192 91.1662763466042" height="91.1662763466042" width="192" id="textblock"><g><svg viewBox="0 0 192 91.1662763466042" height="91.1662763466042" width="192"><g transform="matrix(1,0,0,1,0,0)"><svg width="192" viewBox="86.35000000000001 -37.15 170.7999999999999 78.1" height="91.1662763466042" data-palette-color="#1b1b1b"><svg></svg><svg></svg><g class="wordmark-text-0" data-fill-palette-color="primary" id="text-0"><path transform="translate(103.9,0)" d="M5.4 0h-2.25v-34.4h12.3v2.1h-10.05v14.55h8.95v2.1h-8.95zM19.55 0v-25.5h1.75l0.2 4.9h0.2c0.4-2.033 1.083-3.427 2.05-4.18 0.967-0.747 2.267-1.12 3.9-1.12v0 2.25c-2.3 0-3.867 0.857-4.7 2.57-0.833 1.72-1.25 4.447-1.25 8.18v0 12.9zM37.5 0.4c-2.233 0-3.85-0.343-4.85-1.03-1-0.68-1.65-1.887-1.95-3.62-0.3-1.733-0.45-4.55-0.45-8.45v0c0-3.9 0.15-6.727 0.45-8.48 0.3-1.747 0.95-2.97 1.95-3.67 1-0.7 2.617-1.05 4.85-1.05v0c2.233 0 3.85 0.35 4.85 1.05 1 0.7 1.65 1.923 1.95 3.67 0.3 1.753 0.45 4.58 0.45 8.48v0c0 3.9-0.15 6.717-0.45 8.45-0.3 1.733-0.95 2.94-1.95 3.62-1 0.687-2.617 1.03-4.85 1.03zM37.5-1.55c1.667 0 2.843-0.267 3.53-0.8 0.68-0.533 1.113-1.517 1.3-2.95 0.18-1.433 0.27-3.9 0.27-7.4v0c0-3.533-0.09-6.017-0.27-7.45-0.187-1.433-0.62-2.427-1.3-2.98-0.687-0.547-1.863-0.82-3.53-0.82v0c-1.633 0-2.79 0.273-3.47 0.82-0.687 0.553-1.13 1.553-1.33 3-0.2 1.453-0.3 3.93-0.3 7.43v0c0 3.5 0.1 5.967 0.3 7.4 0.2 1.433 0.643 2.417 1.33 2.95 0.68 0.533 1.837 0.8 3.47 0.8zM61.45 0v-15.6c0-2.5-0.107-4.317-0.32-5.45-0.22-1.133-0.637-1.9-1.25-2.3-0.62-0.4-1.597-0.6-2.93-0.6v0c-1.567 0-2.7 0.44-3.4 1.32-0.7 0.887-1.133 2.03-1.3 3.43-0.167 1.4-0.25 3.417-0.25 6.05v0 13.15h-2.15v-25.5h1.75l0.2 3.7h0.2c0.333-1.267 0.917-2.267 1.75-3 0.833-0.733 2.133-1.1 3.9-1.1v0c1.7 0 2.977 0.317 3.83 0.95 0.847 0.633 1.413 1.623 1.7 2.97 0.28 1.353 0.42 3.313 0.42 5.88v0 16.1zM72.6 0h-2.15v-23.55h-3.2v-1.95h3.2v-7.4h2.15v7.4h3.7v1.95h-3.7zM82.35 0h-2.15v-37.15h2.15zM92.8 0.4c-1.467 0-2.633-0.2-3.5-0.6-0.867-0.4-1.517-1.133-1.95-2.2-0.433-1.067-0.65-2.583-0.65-4.55v0c0-1.9 0.167-3.367 0.5-4.4 0.333-1.033 0.9-1.777 1.7-2.23 0.8-0.447 1.95-0.67 3.45-0.67v0c1.1 0 3.117 0.083 6.05 0.25v0-2.2c0-2.4-0.123-4.117-0.37-5.15-0.253-1.033-0.737-1.727-1.45-2.08-0.72-0.347-1.88-0.52-3.48-0.52v0c-0.8 0-1.723 0.057-2.77 0.17-1.053 0.12-1.913 0.263-2.58 0.43v0-1.95c1.733-0.4 3.7-0.6 5.9-0.6v0c1.9 0 3.333 0.267 4.3 0.8 0.967 0.533 1.643 1.457 2.03 2.77 0.38 1.32 0.57 3.28 0.57 5.88v0 16.45h-1.75l-0.2-3.7h-0.2c-0.367 1.667-1.04 2.767-2.02 3.3-0.987 0.533-2.18 0.8-3.58 0.8zM93.05-1.55c1.233 0 2.243-0.177 3.03-0.53 0.78-0.347 1.337-1.12 1.67-2.32v0c0.433-1.6 0.65-3.6 0.65-6v0-2h-5.65c-1.1 0-1.917 0.133-2.45 0.4-0.533 0.267-0.907 0.773-1.12 1.52-0.22 0.753-0.33 1.913-0.33 3.48v0c0 1.533 0.11 2.673 0.33 3.42 0.213 0.753 0.62 1.28 1.22 1.58 0.6 0.3 1.483 0.45 2.65 0.45zM113.75 0.4c-1.4 0-2.557-0.277-3.47-0.83-0.92-0.547-1.58-1.637-1.98-3.27v0h-0.2l-0.2 3.7h-1.75v-37.15h2.15v14.9h0.2c0.333-1.3 0.927-2.233 1.78-2.8 0.847-0.567 2.003-0.85 3.47-0.85v0c1.9 0 3.31 0.357 4.23 1.07 0.913 0.72 1.547 1.987 1.9 3.8 0.347 1.82 0.52 4.58 0.52 8.28v0c0 3.7-0.173 6.457-0.52 8.27-0.353 1.82-0.987 3.087-1.9 3.8-0.92 0.72-2.33 1.08-4.23 1.08zM113.25-1.55c1.533 0 2.633-0.26 3.3-0.78 0.667-0.513 1.117-1.52 1.35-3.02 0.233-1.5 0.35-3.967 0.35-7.4v0c0-3.433-0.117-5.9-0.35-7.4-0.233-1.5-0.683-2.51-1.35-3.03-0.667-0.513-1.767-0.77-3.3-0.77v0c-1.233 0-2.217 0.29-2.95 0.87-0.733 0.587-1.233 1.513-1.5 2.78v0c-0.333 1.8-0.5 4.317-0.5 7.55v0c0 1.733 0.027 3.16 0.08 4.28 0.047 1.113 0.17 2.17 0.37 3.17v0c0.267 1.3 0.767 2.25 1.5 2.85 0.733 0.6 1.733 0.9 3 0.9zM130.3 0.4c-1 0-2.023-0.057-3.07-0.17-1.053-0.12-1.88-0.263-2.48-0.43v0-1.9c0.567 0.167 1.383 0.3 2.45 0.4 1.067 0.1 2.167 0.15 3.3 0.15v0c1.7 0 2.843-0.433 3.43-1.3 0.58-0.867 0.87-2.15 0.87-3.85v0c0-1.467-0.067-2.517-0.2-3.15-0.133-0.633-0.357-1.06-0.67-1.28-0.32-0.213-0.847-0.37-1.58-0.47v0l-4.45-0.75c-1.367-0.233-2.317-0.817-2.85-1.75-0.533-0.933-0.8-2.433-0.8-4.5v0c0-2.8 0.567-4.717 1.7-5.75 1.133-1.033 2.833-1.55 5.1-1.55v0c0.867 0 1.783 0.057 2.75 0.17 0.967 0.12 1.717 0.263 2.25 0.43v0 1.95c-0.467-0.2-1.2-0.35-2.2-0.45-1-0.1-2.05-0.15-3.15-0.15v0c-1.4 0-2.467 0.357-3.2 1.07-0.733 0.72-1.1 2.03-1.1 3.93v0c0 1.3 0.077 2.26 0.23 2.88 0.147 0.613 0.38 1.037 0.7 1.27 0.313 0.233 0.803 0.4 1.47 0.5v0l4.4 0.7c1 0.167 1.76 0.45 2.28 0.85 0.513 0.4 0.887 1.057 1.12 1.97 0.233 0.92 0.35 2.263 0.35 4.03v0c0 2.567-0.517 4.4-1.55 5.5-1.033 1.1-2.733 1.65-5.1 1.65z" fill="#1b1b1b" fill-rule="nonzero" stroke="none" stroke-width="1" stroke-linecap="butt" stroke-linejoin="miter" stroke-miterlimit="10" stroke-dasharray="" stroke-dashoffset="0" font-family="none" font-weight="none" font-size="none" text-anchor="none" style="mix-blend-mode: normal" data-fill-palette-color="primary" opacity="1"></path><path transform="translate(85.4,40.55)" d="M19.25 0h-2.3l-2.35-10.5h-9.1l-2.35 10.5h-2.2l7.75-34.4h2.75zM14.15-12.6l-4-18h-0.25l-4 18zM45.65 0v-15.6c0-2.533-0.1-4.36-0.3-5.48-0.2-1.113-0.583-1.87-1.15-2.27-0.567-0.4-1.483-0.6-2.75-0.6v0c-1.567 0-2.7 0.407-3.4 1.22-0.7 0.82-1.133 1.92-1.3 3.3-0.167 1.387-0.25 3.48-0.25 6.28v0 13.15h-2.15v-15.6c0-2.5-0.1-4.317-0.3-5.45-0.2-1.133-0.573-1.9-1.12-2.3-0.553-0.4-1.447-0.6-2.68-0.6v0c-1.567 0-2.707 0.44-3.42 1.32-0.72 0.887-1.163 2.037-1.33 3.45-0.167 1.42-0.25 3.43-0.25 6.03v0 13.15h-2.15v-25.5h1.75l0.2 3.7h0.25c0.267-1.233 0.81-2.227 1.63-2.98 0.813-0.747 2.07-1.12 3.77-1.12v0c1.767 0 3.05 0.307 3.85 0.92 0.8 0.62 1.333 1.68 1.6 3.18v0h0.3c0.567-2.733 2.4-4.1 5.5-4.1v0c1.667 0 2.917 0.317 3.75 0.95 0.833 0.633 1.393 1.623 1.68 2.97 0.28 1.353 0.42 3.297 0.42 5.83v0 16.15zM58.2 0.4c-1 0-2.023-0.057-3.07-0.17-1.053-0.12-1.88-0.263-2.48-0.43v0-1.9c0.567 0.167 1.383 0.3 2.45 0.4 1.067 0.1 2.167 0.15 3.3 0.15v0c1.7 0 2.843-0.433 3.43-1.3 0.58-0.867 0.87-2.15 0.87-3.85v0c0-1.467-0.067-2.517-0.2-3.15-0.133-0.633-0.357-1.06-0.67-1.28-0.32-0.213-0.847-0.37-1.58-0.47v0l-4.45-0.75c-1.367-0.233-2.317-0.817-2.85-1.75-0.533-0.933-0.8-2.433-0.8-4.5v0c0-2.8 0.567-4.717 1.7-5.75 1.133-1.033 2.833-1.55 5.1-1.55v0c0.867 0 1.783 0.057 2.75 0.17 0.967 0.12 1.717 0.263 2.25 0.43v0 1.95c-0.467-0.2-1.2-0.35-2.2-0.45-1-0.1-2.05-0.15-3.15-0.15v0c-1.4 0-2.467 0.357-3.2 1.07-0.733 0.72-1.1 2.03-1.1 3.93v0c0 1.3 0.073 2.26 0.22 2.88 0.153 0.613 0.39 1.037 0.71 1.27 0.313 0.233 0.803 0.4 1.47 0.5v0l4.4 0.7c1 0.167 1.76 0.45 2.28 0.85 0.513 0.4 0.887 1.057 1.12 1.97 0.233 0.92 0.35 2.263 0.35 4.03v0c0 2.567-0.517 4.4-1.55 5.5-1.033 1.1-2.733 1.65-5.1 1.65zM72.55 0h-2.15v-23.55h-3.2v-1.95h3.2v-7.4h2.15v7.4h3.7v1.95h-3.7zM93.15-12.8v0.75h-11.85c0 3.067 0.123 5.3 0.37 6.7 0.253 1.4 0.763 2.383 1.53 2.95 0.767 0.567 2.017 0.85 3.75 0.85v0c0.9 0 1.877-0.06 2.93-0.18 1.047-0.113 1.953-0.27 2.72-0.47v0 1.95c-0.667 0.167-1.567 0.317-2.7 0.45-1.133 0.133-2.217 0.2-3.25 0.2v0c-2.2 0-3.823-0.377-4.87-1.13-1.053-0.747-1.757-2.013-2.11-3.8-0.347-1.78-0.52-4.503-0.52-8.17v0c0-3.767 0.133-6.5 0.4-8.2 0.267-1.7 0.917-2.96 1.95-3.78 1.033-0.813 2.717-1.22 5.05-1.22v0c2.067 0 3.56 0.373 4.48 1.12 0.913 0.753 1.497 1.987 1.75 3.7 0.247 1.72 0.37 4.48 0.37 8.28zM86.45-23.95c-1.6 0-2.74 0.233-3.42 0.7-0.687 0.467-1.147 1.373-1.38 2.72-0.233 1.353-0.35 3.58-0.35 6.68v0h9.75v-1c0-2.733-0.133-4.733-0.4-6-0.267-1.267-0.707-2.1-1.32-2.5-0.62-0.4-1.58-0.6-2.88-0.6zM98.25 0v-25.5h1.75l0.2 4.9h0.2c0.4-2.033 1.083-3.427 2.05-4.18 0.967-0.747 2.267-1.12 3.9-1.12v0 2.25c-2.3 0-3.867 0.857-4.7 2.57-0.833 1.72-1.25 4.447-1.25 8.18v0 12.9zM115.6 0.4c-1.867 0-3.267-0.36-4.2-1.08-0.933-0.713-1.577-1.98-1.93-3.8-0.347-1.813-0.52-4.57-0.52-8.27v0c0-3.7 0.173-6.46 0.52-8.28 0.353-1.813 0.99-3.08 1.91-3.8 0.913-0.713 2.32-1.07 4.22-1.07v0c1.5 0 2.667 0.283 3.5 0.85 0.833 0.567 1.417 1.5 1.75 2.8v0h0.25v-14.9h2.15v37.15h-1.75l-0.2-3.7h-0.25c-0.367 1.633-1.007 2.723-1.92 3.27-0.92 0.553-2.097 0.83-3.53 0.83zM116.15-1.55c1.267 0 2.267-0.293 3-0.88 0.733-0.58 1.217-1.503 1.45-2.77v0c0.2-1.067 0.333-2.193 0.4-3.38 0.067-1.18 0.1-2.787 0.1-4.82v0c0-2.8-0.15-4.95-0.45-6.45v0c-0.3-1.467-0.817-2.517-1.55-3.15-0.733-0.633-1.783-0.95-3.15-0.95v0c-1.467 0-2.527 0.257-3.18 0.77-0.647 0.52-1.087 1.53-1.32 3.03-0.233 1.5-0.35 3.967-0.35 7.4v0c0 3.433 0.117 5.9 0.35 7.4 0.233 1.5 0.693 2.507 1.38 3.02 0.68 0.52 1.787 0.78 3.32 0.78zM133.7 0.4c-1.467 0-2.633-0.2-3.5-0.6-0.867-0.4-1.517-1.133-1.95-2.2-0.433-1.067-0.65-2.583-0.65-4.55v0c0-1.9 0.167-3.367 0.5-4.4 0.333-1.033 0.9-1.777 1.7-2.23 0.8-0.447 1.95-0.67 3.45-0.67v0c1.1 0 3.117 0.083 6.05 0.25v0-2.2c0-2.4-0.123-4.117-0.37-5.15-0.253-1.033-0.74-1.727-1.46-2.08-0.713-0.347-1.87-0.52-3.47-0.52v0c-0.8 0-1.727 0.057-2.78 0.17-1.047 0.12-1.903 0.263-2.57 0.43v0-1.95c1.733-0.4 3.7-0.6 5.9-0.6v0c1.9 0 3.333 0.267 4.3 0.8 0.967 0.533 1.643 1.457 2.03 2.77 0.38 1.32 0.57 3.28 0.57 5.88v0 16.45h-1.75l-0.2-3.7h-0.2c-0.367 1.667-1.04 2.767-2.02 3.3-0.987 0.533-2.18 0.8-3.58 0.8zM133.95-1.55c1.233 0 2.24-0.177 3.02-0.53 0.787-0.347 1.347-1.12 1.68-2.32v0c0.433-1.6 0.65-3.6 0.65-6v0-2h-5.65c-1.1 0-1.917 0.133-2.45 0.4-0.533 0.267-0.907 0.773-1.12 1.52-0.22 0.753-0.33 1.913-0.33 3.48v0c0 1.533 0.11 2.673 0.33 3.42 0.213 0.753 0.62 1.28 1.22 1.58 0.6 0.3 1.483 0.45 2.65 0.45zM169.6 0v-15.6c0-2.533-0.1-4.36-0.3-5.48-0.2-1.113-0.583-1.87-1.15-2.27-0.567-0.4-1.483-0.6-2.75-0.6v0c-1.567 0-2.7 0.407-3.4 1.22-0.7 0.82-1.133 1.92-1.3 3.3-0.167 1.387-0.25 3.48-0.25 6.28v0 13.15h-2.15v-15.6c0-2.5-0.1-4.317-0.3-5.45-0.2-1.133-0.573-1.9-1.12-2.3-0.553-0.4-1.447-0.6-2.68-0.6v0c-1.567 0-2.707 0.44-3.42 1.32-0.72 0.887-1.163 2.037-1.33 3.45-0.167 1.42-0.25 3.43-0.25 6.03v0 13.15h-2.15v-25.5h1.75l0.2 3.7h0.25c0.267-1.233 0.81-2.227 1.63-2.98 0.813-0.747 2.07-1.12 3.77-1.12v0c1.767 0 3.05 0.307 3.85 0.92 0.8 0.62 1.333 1.68 1.6 3.18v0h0.3c0.567-2.733 2.4-4.1 5.5-4.1v0c1.667 0 2.917 0.317 3.75 0.95 0.833 0.633 1.393 1.623 1.68 2.97 0.28 1.353 0.42 3.297 0.42 5.83v0 16.15z" fill="#939191" fill-rule="nonzero" stroke="none" stroke-width="1" stroke-linecap="butt" stroke-linejoin="miter" stroke-miterlimit="10" stroke-dasharray="" stroke-dashoffset="0" font-family="none" font-weight="none" font-size="none" text-anchor="none" style="mix-blend-mode: normal" data-fill-palette-color="secondary" opacity="1"></path></g></svg></g></svg></g></svg></g></svg></g><g transform="matrix(1,0,0,1,198.1595648149883,0)"><svg viewBox="0 0 69.74194091735471 125.99179391100702" height="125.99179391100702" width="69.74194091735471"><g><svg xmlns="http://www.w3.org/2000/svg" xmlns:xlink="http://www.w3.org/1999/xlink" version="1.1" x="0" y="0" viewBox="21.674000000000003 2 45.333 81.896" enable-background="new 0 0 90 90" xml:space="preserve" height="125.99179391100702" width="69.74194091735471" class="icon-icon-0" data-fill-palette-color="accent" id="icon-0"><g fill="#1b1b1b" data-fill-palette-color="accent"><g fill="#1b1b1b" data-fill-palette-color="accent"><path d="M62.448 47.599c-2.634-3.491-6.287-6.193-10.383-7.679V25.988h0.186c2.25 0 4.083-1.833 4.083-4.095 0-2.25-1.833-4.095-4.083-4.095H36.429c-2.25 0-4.083 1.844-4.083 4.095 0 2.262 1.833 4.095 4.083 4.095h0.186V39.92c-4.095 1.485-7.749 4.188-10.382 7.679-2.981 3.956-4.559 8.665-4.559 13.631 0 12.505 10.173 22.666 22.667 22.666 12.505 0 22.666-10.161 22.666-22.666C67.006 56.264 65.429 51.555 62.448 47.599zM36.429 24.353c-1.357 0-2.459-1.102-2.459-2.459 0-1.357 1.102-2.459 2.459-2.459h15.822c1.357 0 2.46 1.102 2.46 2.459 0 1.357-1.103 2.459-2.46 2.459H36.429zM44.34 82.271c-11.623 0-21.042-9.42-21.042-21.042 0-9.501 6.298-17.528 14.952-20.138V25.988h12.18v15.104c8.653 2.609 14.953 10.637 14.953 20.138C65.383 72.852 55.964 82.271 44.34 82.271z" fill="#1b1b1b" data-fill-palette-color="accent"></path><path d="M30.338 53.899c-0.171 0-0.343-0.033-0.51-0.106-0.665-0.28-0.973-1.046-0.692-1.709 1.829-4.298 5.67-7.317 10.274-8.073 0.71-0.116 1.382 0.364 1.5 1.076 0.116 0.712-0.367 1.383-1.077 1.499-3.717 0.61-6.819 3.047-8.295 6.519C31.327 53.601 30.846 53.899 30.338 53.899z" fill="#1b1b1b" data-fill-palette-color="accent"></path><path d="M55.623 6.231c-0.616 0-1.09-0.204-1.425-0.608-0.333-0.403-0.447-0.917-0.336-1.53C54.107 2.699 54.943 2 56.368 2c0.584 0 1.042 0.202 1.377 0.609 0.333 0.404 0.446 0.898 0.345 1.483C57.839 5.518 57.016 6.231 55.623 6.231L55.623 6.231z" fill="#1b1b1b" data-fill-palette-color="accent"></path><path d="M48.099 13.466c-1.054 0-1.867-0.349-2.437-1.041-0.571-0.692-0.763-1.567-0.577-2.619 0.421-2.383 1.852-3.575 4.289-3.575 0.996 0 1.781 0.347 2.352 1.039 0.571 0.693 0.771 1.54 0.594 2.536C51.889 12.244 50.479 13.466 48.099 13.466L48.099 13.466z" fill="#1b1b1b" data-fill-palette-color="accent"></path><path d="M56.902 67.725c-0.371 0.313-0.603 0.755-0.603 1.253 0 0.975 0.928 1.764 2.064 1.764h1.102c-3.097 5.116-8.711 8.537-15.126 8.537-9.755 0-17.667-7.91-17.667-17.678 0-9.756 9.617-1.949 16.797-6.183 7.32-4.327 15.962-3.828 18.062 2.829h-3.167c-0.567 0-1.09 0.197-1.462 0.512-0.371 0.325-0.603 0.766-0.603 1.264 0 0.975 0.928 1.764 2.064 1.764h3.643c-0.012 1.891-0.325 3.711-0.904 5.417h-2.738C57.797 67.203 57.274 67.4 56.902 67.725z" fill="#1b1b1b" data-fill-palette-color="accent"></path></g></g></svg></g></svg></g></svg></g></svg></g></svg></g></svg></g><defs></defs></svg><rect width="320" height="360" fill="none" stroke="none" visibility="hidden"></rect></g></svg></g></svg>