<svg xmlns="http://www.w3.org/2000/svg" version="1.1" xmlns:xlink="http://www.w3.org/1999/xlink" xmlns:svgjs="http://svgjs.dev/svgjs" width="1000" height="1000" viewBox="0 0 1000 1000"><rect width="1000" height="1000" fill="#000000"></rect><g transform="matrix(0.7,0,0,0.7,150,150)"><svg viewBox="0 0 280 280" data-background-color="#ffffff" preserveAspectRatio="xMidYMid meet" height="1000" width="1000" xmlns="http://www.w3.org/2000/svg" xmlns:xlink="http://www.w3.org/1999/xlink"><g id="tight-bounds" transform="matrix(1,0,0,1,0,0)"><svg viewBox="0 0 280 280" height="280" width="280"><g><svg viewBox="0 0 280 280" height="280" width="280"><g><svg viewBox="0 0 280 280" height="280" width="280"><g id="textblocktransform"><svg viewBox="0 0 280 280" height="280" width="280" id="textblock"><g><svg viewBox="0 0 280 280" height="280" width="280"><g transform="matrix(1,0,0,1,107.88253633167857,74.00336708925556)"><svg viewBox="0 0 64.23492733664287 131.99326582148888" height="131.99326582148888" width="64.23492733664287"><g><svg xmlns="http://www.w3.org/2000/svg" xmlns:xlink="http://www.w3.org/1999/xlink" version="1.0" x="0" y="0" viewBox="44.084999084472656 18.20599937438965 52.12200164794922 107.10299682617188" enable-background="new 0 0 141.73 141.73" xml:space="preserve" height="131.99326582148888" width="64.23492733664287" class="icon-o-0" data-fill-palette-color="accent" id="o-0"><g fill="#636365" data-fill-palette-color="accent"><polygon points="93.021,125.309 83.388,92.659 56.859,92.659 47.226,125.309 44.085,125.309 54.656,89.715 85.589,89.715    96.207,125.309  " fill="#ffffff" data-fill-palette-color="accent"></polygon></g><path d="M58.401 125.309c0 0-3.899-11.481 11.046-17.762 0 0 8.448-2.602 7.581-12.778 0 0 11.82 22.093 0.062 30.54H58.401z" fill="#ffffff" data-fill-palette-color="accent"></path><path d="M79.337 41.015V29.09c1.84-1.017 3.072-2.896 3.072-5.038 0-3.224-2.787-5.846-6.21-5.846H64.043c-3.424 0-6.209 2.623-6.209 5.846 0 2.147 1.236 4.027 3.072 5.045v11.918c-9.151 3.716-15.358 12.761-15.358 22.771 0 7.312 3.229 14.196 8.856 18.883l0.881 0.737h1.148 27.375 1.147l0.883-0.737c5.626-4.688 8.855-11.57 8.855-18.883C94.695 53.776 88.487 44.731 79.337 41.015zM64.76 72.211c-1.102 0-1.997-0.893-1.997-1.999 0-1.104 0.896-1.998 1.997-1.998 1.104 0 1.998 0.895 1.998 1.998C66.758 71.318 65.863 72.211 64.76 72.211zM68.281 61.375c-0.521 0-0.941-0.421-0.941-0.941s0.421-0.941 0.941-0.941c0.52 0 0.941 0.421 0.941 0.941S68.801 61.375 68.281 61.375zM72.424 77.84c-0.744 0-1.348-0.604-1.348-1.348s0.604-1.348 1.348-1.348 1.348 0.604 1.348 1.348S73.168 77.84 72.424 77.84zM74.277 70.212c-1.768 0-3.201-1.434-3.201-3.202 0-1.768 1.434-3.201 3.201-3.201 1.769 0 3.202 1.434 3.202 3.201C77.479 68.779 76.046 70.212 74.277 70.212zM51.372 53.482c2.697-4.889 7.245-8.613 12.705-10.219V26.728h-0.033c-1.678 0-3.039-1.198-3.039-2.675 0-1.478 1.36-2.676 3.039-2.676H76.2c1.678 0 3.039 1.198 3.039 2.676 0 1.477-1.361 2.675-3.039 2.675h-0.033v16.536c5.459 1.604 10.008 5.331 12.705 10.218H51.372z" fill="#ffffff" data-fill-palette-color="accent"></path></svg></g></svg></g><g><path d="M15.069 96.557l2.125 0.653-2.048 6.661 8.707 2.677-0.762 2.478-19.715-6.063 3.156-10.264 2.135 0.656-2.394 7.787 6.748 2.075z" fill="#ffffff" data-fill-palette-color="primary"></path><path d="M32.161 85.849l-9.11-0.144-1.513 3.297 7.581 3.478-1.089 2.375-18.749-8.601 2.41-5.253c0.843-1.838 1.959-3.009 3.349-3.515 1.389-0.505 3.006-0.335 4.85 0.512v0c1.161 0.533 2.056 1.252 2.685 2.156 0.629 0.905 0.946 1.926 0.951 3.063v0l9.639 0.026 0.159 0.072zM12.401 84.81l7.107 3.26 1.307-2.85c0.456-0.993 0.501-1.927 0.135-2.801-0.363-0.88-1.078-1.566-2.146-2.056v0c-2.403-1.102-4.104-0.564-5.104 1.616v0z" fill="#ffffff" data-fill-palette-color="primary"></path><path d="M32.299 62.277l3.158 2.024c2.369 1.519 3.871 3.195 4.504 5.03 0.634 1.834 0.355 3.68-0.836 5.538v0c-1.147 1.789-2.677 2.803-4.592 3.044-1.906 0.239-4.01-0.351-6.314-1.771v0l-3.261-2.09c-2.323-1.489-3.816-3.168-4.476-5.036-0.657-1.874-0.398-3.728 0.778-5.563v0c1.172-1.829 2.716-2.851 4.633-3.068 1.912-0.211 4.048 0.42 6.406 1.892zM34.273 66.622l-3.252-2.085c-1.84-1.18-3.4-1.753-4.678-1.721-1.281 0.023-2.319 0.656-3.116 1.898v0c-0.77 1.202-0.899 2.402-0.384 3.6 0.508 1.194 1.644 2.36 3.405 3.497v0l3.115 1.997c1.777 1.139 3.326 1.698 4.646 1.676 1.326-0.018 2.382-0.64 3.167-1.865 0.785-1.225 0.937-2.405 0.456-3.541-0.481-1.136-1.601-2.288-3.359-3.456z" fill="#ffffff" data-fill-palette-color="primary"></path><path d="M39.201 41.392l15.512 13.596-1.716 1.957-17.395-4.264 11.952 10.475-1.722 1.965-15.513-13.595 1.723-1.966 17.463 4.297-12.006-10.523z" fill="#ffffff" data-fill-palette-color="primary"></path><path d="M54.486 28.179l1.437 1.71-4.157 3.494 11.834 14.081-1.985 1.668-11.834-14.081-4.142 3.481-1.437-1.71z" fill="#ffffff" data-fill-palette-color="primary"></path><path d="M62.2 22.924l10.027 15.431 6.78-4.405 1.211 1.864-8.97 5.829-11.239-17.296z" fill="#ffffff" data-fill-palette-color="primary"></path><path d="M94.37 29.228l-3.736-4.201-6.325 2.922 0.795 5.559-2.418 1.117-2.613-21.514 2.018-0.933 14.697 15.932zM82.599 15.94l1.383 9.689 5.107-2.36z" fill="#ffffff" data-fill-palette-color="primary"></path><path d="M106.284 25.117l-5.803 1.8-6.111-19.701 5.618-1.742c1.794-0.557 3.28-0.538 4.458 0.054 1.178 0.593 2.038 1.764 2.581 3.513v0c0.285 0.92 0.309 1.803 0.071 2.649-0.245 0.848-0.699 1.586-1.363 2.215v0c0.985-0.005 1.872 0.328 2.66 0.999 0.79 0.678 1.367 1.607 1.734 2.788v0c0.548 1.768 0.493 3.309-0.166 4.621-0.658 1.313-1.885 2.248-3.679 2.804zM103.532 15.864l-3.435 1.066 2.201 7.095 3.386-1.05c0.94-0.291 1.587-0.832 1.943-1.622 0.356-0.79 0.361-1.743 0.015-2.858v0c-0.737-2.375-2.106-3.252-4.11-2.631zM97.508 8.582l1.943 6.263 3.18-0.986c0.855-0.265 1.457-0.767 1.808-1.505 0.348-0.745 0.375-1.593 0.08-2.546v0c-0.336-1.083-0.818-1.795-1.446-2.137-0.63-0.348-1.438-0.369-2.423-0.064v0z" fill="#ffffff" data-fill-palette-color="primary"></path><path d="M124.795 15.985v0c-0.163-1.018-0.565-1.753-1.205-2.204-0.64-0.451-1.719-0.817-3.238-1.099-1.519-0.282-2.702-0.646-3.548-1.091-0.852-0.438-1.525-0.99-2.02-1.658-0.494-0.661-0.815-1.457-0.964-2.388v0c-0.259-1.612 0.068-3.027 0.979-4.246 0.905-1.218 2.23-1.967 3.977-2.247v0c1.194-0.192 2.299-0.092 3.317 0.298 1.023 0.382 1.86 1.009 2.512 1.88 0.658 0.87 1.079 1.875 1.262 3.014v0l-2.569 0.413c-0.202-1.261-0.662-2.187-1.38-2.778-0.717-0.591-1.646-0.794-2.786-0.611v0c-1.032 0.166-1.789 0.581-2.27 1.246-0.473 0.671-0.626 1.529-0.459 2.575v0c0.137 0.857 0.56 1.526 1.267 2.007 0.707 0.482 1.741 0.845 3.101 1.09v0c2.116 0.338 3.68 0.925 4.693 1.758 1.019 0.833 1.654 2.031 1.906 3.597v0c0.265 1.653-0.059 3.061-0.972 4.224-0.912 1.17-2.289 1.903-4.131 2.199v0c-1.187 0.191-2.325 0.107-3.413-0.252-1.082-0.359-1.984-0.962-2.708-1.807-0.724-0.846-1.183-1.875-1.378-3.089v0l2.57-0.413c0.202 1.261 0.711 2.186 1.524 2.776 0.821 0.588 1.838 0.784 3.053 0.589v0c1.126-0.181 1.926-0.607 2.4-1.277 0.48-0.672 0.64-1.507 0.48-2.506z" fill="#ffffff" data-fill-palette-color="primary"></path><path d="M152.038 20.924l-1.346-5.458-6.958-0.364-1.888 5.289-2.66-0.139 7.718-20.252 2.22 0.116 5.575 20.947zM147.82 3.68l-3.294 9.217 5.618 0.293z" fill="#ffffff" data-fill-palette-color="primary"></path><path d="M162.56 1.549l3.27 0.681 1.846 17.571 8.697-15.375 3.281 0.683-4.206 20.194-2.538-0.529 1.638-7.864 1.871-7.827-8.565 14.638-1.936-0.403-1.989-16.784-1.399 7.872-1.638 7.865-2.538-0.529z" fill="#ffffff" data-fill-palette-color="primary"></path><path d="M190.66 25.646v0c0.376-0.961 0.402-1.797 0.079-2.51-0.323-0.713-1.067-1.576-2.232-2.59-1.166-1.014-2.001-1.927-2.504-2.74-0.512-0.809-0.812-1.627-0.9-2.454-0.09-0.82 0.037-1.669 0.38-2.547v0c0.595-1.52 1.594-2.575 2.998-3.162 1.397-0.59 2.92-0.563 4.568 0.081v0c1.126 0.441 2.028 1.087 2.707 1.94 0.688 0.849 1.091 1.813 1.211 2.894 0.126 1.084-0.021 2.163-0.442 3.238v0l-2.423-0.948c0.465-1.19 0.539-2.221 0.22-3.094-0.319-0.873-1.016-1.52-2.091-1.94v0c-0.973-0.381-1.836-0.407-2.588-0.077-0.748 0.338-1.316 1-1.702 1.986v0c-0.316 0.808-0.292 1.599 0.073 2.372 0.365 0.774 1.071 1.611 2.12 2.513v0c1.652 1.365 2.703 2.664 3.152 3.896 0.456 1.235 0.395 2.59-0.182 4.066v0c-0.61 1.559-1.603 2.608-2.981 3.147-1.38 0.546-2.938 0.479-4.675-0.201v0c-1.12-0.438-2.058-1.087-2.813-1.948-0.75-0.858-1.222-1.835-1.417-2.931-0.195-1.096-0.068-2.216 0.379-3.361v0l2.424 0.948c-0.465 1.19-0.497 2.245-0.094 3.165 0.409 0.923 1.186 1.608 2.332 2.057v0c1.062 0.416 1.968 0.454 2.716 0.116 0.755-0.336 1.316-0.974 1.685-1.916z" fill="#ffffff" data-fill-palette-color="primary"></path><path d="M215.7 21.416l-1.088 1.951-4.743-2.644-8.957 16.065-2.264-1.263 8.956-16.065-4.725-2.634 1.088-1.951z" fill="#ffffff" data-fill-palette-color="primary"></path><path d="M223.991 38.222l-1.314 1.794-5.884-4.313-4.326 5.9 6.86 5.028-1.315 1.794-8.95-6.561 12.194-16.636 8.835 6.475-1.321 1.802-6.744-4.943-3.919 5.347z" fill="#ffffff" data-fill-palette-color="primary"></path><path d="M228.315 58.332l3.145-8.552-2.613-2.516-5.787 6.007-1.881-1.813 14.31-14.855 4.162 4.009c1.456 1.403 2.193 2.843 2.212 4.321 0.018 1.478-0.677 2.948-2.085 4.409v0c-0.886 0.92-1.861 1.528-2.923 1.823-1.062 0.295-2.131 0.257-3.205-0.114v0l-3.207 9.089-0.121 0.126zM235.821 40.024l-5.424 5.631 2.258 2.175c0.787 0.758 1.654 1.109 2.6 1.053 0.951-0.052 1.834-0.5 2.649-1.346v0c1.834-1.904 1.888-3.688 0.161-5.352v0z" fill="#ffffff" data-fill-palette-color="primary"></path><path d="M235.492 66.88l-2.867-3.625 16.179-12.795 3.051 3.858c1.496 1.891 2.065 3.823 1.709 5.795-0.358 1.981-1.606 3.817-3.744 5.508v0l-2.716 2.148c-2.138 1.691-4.208 2.47-6.212 2.339-2.007-0.137-3.807-1.213-5.4-3.228zM250.103 55.704l-1.443-1.825-12.683 10.03 1.291 1.632c1.131 1.431 2.368 2.151 3.708 2.162 1.341 0.011 2.822-0.612 4.442-1.867v0l2.861-2.263c1.709-1.352 2.702-2.668 2.978-3.948 0.277-1.29-0.108-2.597-1.154-3.921z" fill="#ffffff" data-fill-palette-color="primary"></path><path d="M248.282 86.901l3.877-4.069-3.434-6.063-5.474 1.252-1.313-2.318 21.226-4.38 1.096 1.935-14.665 15.961zM260.553 74.074l-9.542 2.178 2.773 4.895z" fill="#ffffff" data-fill-palette-color="primary"></path><path d="M270.275 85.356l1.184 3.123-13.823 11.004 17.64-0.933 1.188 3.133-19.288 7.311-0.919-2.424 7.512-2.848 7.605-2.63-16.947 0.649-0.701-1.849 13.082-10.702-7.39 3.054-7.512 2.847-0.919-2.424z" fill="#ffffff" data-fill-palette-color="primary"></path><path d="M22.08 186.229l-2.125 0.653-2.048-6.66-8.707 2.678-0.762-2.478 19.715-6.063 3.157 10.264-2.135 0.657-2.395-7.787-6.748 2.076z" fill="#ffffff" data-fill-palette-color="primary"></path><path d="M18.227 205.486l6.051-6.813-1.512-3.296-7.581 3.478-1.09-2.375 18.748-8.601 2.41 5.252c0.843 1.838 1.003 3.448 0.48 4.831-0.523 1.382-1.707 2.497-3.551 3.342v0c-1.161 0.533-2.29 0.742-3.387 0.63-1.097-0.113-2.077-0.539-2.942-1.277v0l-6.306 7.289-0.158 0.073zM31.902 191.185l-7.106 3.26 1.308 2.85c0.456 0.993 1.134 1.637 2.035 1.93 0.904 0.299 1.89 0.204 2.958-0.286v0c2.403-1.102 3.104-2.743 2.104-4.923v0z" fill="#ffffff" data-fill-palette-color="primary"></path><path d="M40.027 217.711l-3.157 2.023c-2.369 1.519-4.52 2.183-6.451 1.994-1.931-0.19-3.492-1.214-4.683-3.072v0c-1.147-1.789-1.429-3.603-0.849-5.444 0.579-1.831 1.994-3.497 4.245-4.998v0l3.261-2.09c2.323-1.489 4.472-2.144 6.445-1.965 1.977 0.185 3.553 1.195 4.73 3.03v0c1.172 1.829 1.457 3.659 0.853 5.49-0.607 1.825-2.072 3.503-4.394 5.032zM35.255 217.69l3.253-2.085c1.84-1.18 3.013-2.357 3.516-3.532 0.514-1.173 0.372-2.381-0.423-3.623v0c-0.77-1.202-1.807-1.819-3.111-1.852-1.297-0.037-2.831 0.508-4.6 1.634v0l-3.114 1.996c-1.777 1.139-2.931 2.313-3.463 3.522-0.537 1.213-0.413 2.431 0.372 3.656 0.785 1.225 1.794 1.856 3.028 1.894 1.233 0.037 2.747-0.499 4.542-1.61z" fill="#ffffff" data-fill-palette-color="primary"></path><path d="M58.696 226.463l-15.513 13.596-1.715-1.958 6.508-16.686-11.952 10.475-1.722-1.965 15.512-13.595 1.723 1.965-6.549 16.749 12.006-10.523z" fill="#ffffff" data-fill-palette-color="primary"></path><path d="M71.165 236.918l-1.438 1.71-4.157-3.494-11.834 14.08-1.985-1.668 11.834-14.08-4.142-3.481 1.438-1.71z" fill="#ffffff" data-fill-palette-color="primary"></path><path d="M76.325 240.281l-10.028 15.432 6.779 4.405-1.211 1.864-8.97-5.829 11.239-17.295z" fill="#ffffff" data-fill-palette-color="primary"></path><path d="M87.94 269.632l0.777-5.567-6.325-2.922-3.717 4.209-2.418-1.118 14.687-15.936 2.019 0.932-2.604 21.519zM90.427 252.055l-6.48 7.334 5.107 2.359z" fill="#ffffff" data-fill-palette-color="primary"></path><path d="M101.743 274.467l-5.804-1.8 6.11-19.701 5.618 1.742c1.794 0.557 3.009 1.413 3.645 2.569 0.636 1.156 0.682 2.608 0.14 4.356v0c-0.285 0.92-0.766 1.661-1.441 2.224-0.682 0.561-1.474 0.913-2.376 1.055v0c0.815 0.553 1.358 1.329 1.627 2.329 0.267 1.006 0.218 2.099-0.148 3.279v0c-0.548 1.768-1.466 3.007-2.751 3.717-1.286 0.71-2.826 0.786-4.62 0.23zM104.71 265.281l-3.435-1.065-2.201 7.095 3.386 1.051c0.94 0.291 1.779 0.212 2.52-0.238 0.74-0.45 1.283-1.233 1.629-2.348v0c0.737-2.375 0.103-3.873-1.899-4.495zM103.864 255.868l-1.943 6.263 3.181 0.987c0.855 0.265 1.635 0.193 2.342-0.218 0.709-0.417 1.211-1.101 1.506-2.054v0c0.336-1.083 0.342-1.943 0.017-2.58-0.323-0.644-0.976-1.118-1.962-1.424v0z" fill="#ffffff" data-fill-palette-color="primary"></path><path d="M124.018 273.794v0c0.163-1.018 0.012-1.842-0.454-2.47-0.466-0.628-1.377-1.314-2.732-2.057-1.354-0.743-2.364-1.459-3.028-2.147-0.672-0.682-1.139-1.418-1.4-2.207-0.262-0.782-0.318-1.639-0.169-2.569v0c0.259-1.612 1.012-2.854 2.259-3.727 1.24-0.873 2.734-1.17 4.481-0.889v0c1.194 0.192 2.213 0.632 3.057 1.321 0.852 0.683 1.451 1.541 1.798 2.571 0.353 1.032 0.438 2.118 0.255 3.258v0l-2.57-0.412c0.202-1.261 0.055-2.285-0.441-3.07-0.497-0.785-1.315-1.27-2.455-1.453v0c-1.032-0.166-1.881-0.008-2.546 0.474-0.66 0.489-1.073 1.256-1.241 2.302v0c-0.137 0.857 0.054 1.624 0.575 2.303 0.521 0.679 1.389 1.347 2.605 2.006v0c1.904 0.984 3.206 2.03 3.907 3.138 0.707 1.11 0.936 2.447 0.684 4.012v0c-0.265 1.653-1.014 2.888-2.245 3.708-1.233 0.826-2.77 1.091-4.611 0.796v0c-1.187-0.191-2.241-0.626-3.163-1.307-0.915-0.68-1.584-1.534-2.007-2.564-0.423-1.03-0.537-2.151-0.342-3.365v0l2.57 0.412c-0.202 1.261-0.009 2.299 0.58 3.113 0.596 0.815 1.501 1.32 2.714 1.515v0c1.126 0.181 2.019 0.027 2.679-0.462 0.666-0.488 1.08-1.231 1.24-2.23z" fill="#ffffff" data-fill-palette-color="primary"></path><path d="M152.839 279.328l-1.908-5.287-6.959 0.364-1.325 5.456-2.661 0.139 5.564-20.946 2.221-0.116 7.728 20.251zM146.845 262.619l-2.314 9.509 5.617-0.293z" fill="#ffffff" data-fill-palette-color="primary"></path><path d="M157.274 258.014l3.27-0.681 8.708 15.373 1.835-17.569 3.281-0.683 4.206 20.193-2.538 0.529-1.638-7.865-1.41-7.923-2.008 16.841-1.936 0.403-8.525-14.594 1.861 7.777 1.638 7.864-2.538 0.529z" fill="#ffffff" data-fill-palette-color="primary"></path><path d="M192.445 263.858v0c-0.376-0.961-0.924-1.593-1.645-1.898-0.721-0.305-1.853-0.434-3.398-0.387-1.544 0.047-2.777-0.058-3.698-0.314-0.925-0.247-1.701-0.644-2.326-1.192-0.623-0.541-1.106-1.251-1.449-2.128v0c-0.595-1.52-0.576-2.973 0.056-4.358 0.626-1.382 1.762-2.395 3.41-3.039v0c1.126-0.441 2.228-0.578 3.304-0.413 1.081 0.157 2.032 0.591 2.854 1.304 0.828 0.71 1.452 1.603 1.873 2.679v0l-2.424 0.948c-0.465-1.19-1.111-1.997-1.937-2.422-0.826-0.425-1.777-0.427-2.853-0.006v0c-0.973 0.381-1.625 0.947-1.953 1.699-0.32 0.756-0.288 1.627 0.098 2.614v0c0.316 0.808 0.871 1.372 1.663 1.692 0.793 0.321 1.88 0.456 3.263 0.408v0c2.14-0.118 3.793 0.123 4.959 0.722 1.173 0.598 2.048 1.634 2.625 3.11v0c0.61 1.559 0.592 3.003-0.054 4.335-0.643 1.337-1.833 2.346-3.57 3.025v0c-1.12 0.438-2.249 0.598-3.389 0.478-1.133-0.121-2.143-0.519-3.029-1.191-0.887-0.673-1.554-1.582-2.003-2.727v0l2.424-0.948c0.465 1.19 1.158 1.986 2.079 2.389 0.927 0.4 1.963 0.376 3.108-0.072v0c1.062-0.416 1.754-1.002 2.074-1.758 0.327-0.759 0.306-1.609-0.062-2.55z" fill="#ffffff" data-fill-palette-color="primary"></path><path d="M203.077 240.884l1.088 1.951-4.744 2.644 8.957 16.065-2.265 1.263-8.956-16.065-4.726 2.634-1.087-1.951z" fill="#ffffff" data-fill-palette-color="primary"></path><path d="M219.146 240.109l1.315 1.793-5.885 4.314 4.326 5.9 6.859-5.028 1.315 1.794-8.951 6.56-12.194-16.636 8.835-6.476 1.32 1.802-6.744 4.943 3.92 5.347z" fill="#ffffff" data-fill-palette-color="primary"></path><path d="M238.951 237.65l-8.429-3.462-2.612 2.517 5.787 6.007-1.882 1.813-14.311-14.855 4.162-4.01c1.456-1.403 2.923-2.086 4.401-2.048 1.478 0.037 2.92 0.786 4.328 2.247v0c0.886 0.92 1.457 1.916 1.713 2.989 0.255 1.072 0.177 2.139-0.234 3.199v0l8.963 3.544 0.121 0.126zM220.936 229.466l5.424 5.63 2.258-2.175c0.787-0.758 1.17-1.611 1.15-2.558-0.016-0.952-0.432-1.851-1.247-2.698v0c-1.834-1.904-3.615-2.024-5.342-0.36v0z" fill="#ffffff" data-fill-palette-color="primary"></path><path d="M247.517 227.572l-2.867 3.624-16.179-12.795 3.051-3.858c1.496-1.891 3.244-2.891 5.245-2.998 2.01-0.108 4.085 0.683 6.223 2.374v0l2.716 2.148c2.138 1.691 3.373 3.526 3.707 5.505 0.329 1.985-0.303 3.984-1.896 5.999zM233.274 215.929l-1.443 1.825 12.683 10.03 1.291-1.632c1.131-1.431 1.548-2.8 1.249-4.107-0.299-1.307-1.245-2.605-2.84-3.892v0l-2.862-2.263c-1.709-1.352-3.219-2.014-4.528-1.988-1.32 0.028-2.503 0.703-3.55 2.027z" fill="#ffffff" data-fill-palette-color="primary"></path><path d="M261.621 205.597l-5.484-1.234-3.434 6.062 3.888 4.052-1.313 2.318-14.67-15.953 1.096-1.935 21.23 4.371zM244.31 201.667l6.774 7.064 2.772-4.895z" fill="#ffffff" data-fill-palette-color="primary"></path><path d="M246.035 190.397l1.184-3.123 17.643 0.924-13.826-10.995 1.188-3.133 19.288 7.312-0.919 2.424-7.512-2.848-7.438-3.071 13.119 10.748-0.701 1.849-16.889-0.66 7.557 2.613 7.512 2.847-0.918 2.425z" fill="#ffffff" data-fill-palette-color="primary"></path><path d="M2.9 142.471c0-4.411 3.576-7.988 7.987-7.988 4.411 0 7.988 3.576 7.988 7.988 0 4.411-3.576 7.988-7.988 7.987-4.411 0-7.988-3.576-7.987-7.987z" fill="#ffffff" data-fill-palette-color="primary"></path><path d="M261.125 142.471c0-4.411 3.576-7.988 7.988-7.988 4.411 0 7.988 3.576 7.987 7.988 0 4.411-3.576 7.988-7.987 7.987-4.411 0-7.988-3.576-7.988-7.987z" fill="#ffffff" data-fill-palette-color="primary"></path></g></svg></g></svg></g></svg></g></svg></g><defs></defs></svg><rect width="280" height="280" fill="none" stroke="none" visibility="hidden"></rect></g></svg></g></svg>